<svg width="110" height="113" viewBox="0 0 110 113" fill="none" xmlns="http://www.w3.org/2000/svg">
<path fill-rule="evenodd" clip-rule="evenodd" d="M82.5 28.25V84.75H27.5V28.25H82.5ZM50.6493 42.375H45.2929L35.1235 70.625H39.9559L41.8758 65.1023H54.0493L55.928 70.625H61.0515L50.6493 42.375ZM69.6295 42.375H64.8165V70.625H69.6295V42.375ZM47.9305 47.1147L52.7246 61.2083H43.2126L47.9305 47.1147ZM87.0833 70.625H96.25V80.0417H87.0833V70.625ZM32.0833 89.4583H41.25V98.875H32.0833V89.4583ZM50.4167 89.4583H59.5833V98.875H50.4167V89.4583ZM32.0833 14.125H41.25V23.5417H32.0833V14.125ZM68.75 89.4583H77.9167V98.875H68.75V89.4583ZM50.4167 14.125H59.5833V23.5417H50.4167V14.125ZM68.75 14.125H77.9167V23.5417H68.75V14.125ZM87.0833 51.7917H96.25V61.2083H87.0833V51.7917ZM13.75 70.625H22.9167V80.0417H13.75V70.625ZM87.0833 32.9583H96.25V42.375H87.0833V32.9583ZM13.75 51.7917H22.9167V61.2083H13.75V51.7917ZM13.75 32.9583H22.9167V42.375H13.75V32.9583Z" fill="white"/>
</svg>
