<svg width="44" height="44" viewBox="0 0 44 44" fill="none" xmlns="http://www.w3.org/2000/svg">
<rect width="44" height="44" rx="22" fill="black" fill-opacity="0.9"/>
<g clip-path="url(#clip0_255_87)">
<path d="M12.9228 19.8501C12.0768 20.3166 9.83769 22.4165 9.40643 23.0387C8.95857 23.6609 8.82591 22.6888 9.29031 21.075C9.65512 19.7723 10.5841 18.0029 12.1431 16.4864C13.0553 15.6114 15.0623 14.3476 16.2897 13.6087C16.5385 13.4531 19.7562 11.8588 22.6257 11.0616C22.8745 10.9838 22.3272 11.5477 22.2442 11.8588C21.8129 13.3365 13.2046 19.675 13.2046 19.675L12.9228 19.8501Z" fill="black"/>
<path d="M25.0472 37.6796C25.1964 38.7295 25.0638 38.8073 24.135 38.9434C23.2061 39.0796 22.5261 38.6712 22.2773 38.399C22.0284 38.1267 21.9788 37.5241 22.2275 36.9797C22.3769 36.6296 22.5262 36.513 22.6091 36.0853C22.692 35.677 22.7584 35.5797 22.8247 35.4242C22.891 35.288 22.9077 35.1519 22.9242 34.1992C22.9408 33.2465 22.9242 31.4577 23.0072 30.6995C23.0901 29.9218 25.9596 31.0494 25.9596 31.0494C25.9596 31.0494 25.2795 33.0326 25.0971 33.5187C24.9146 34.0049 24.9312 34.938 24.9312 35.1325C24.9312 35.3269 24.8649 35.7157 24.8151 35.7352C24.7653 35.7546 24.981 36.2601 24.8814 36.5518C24.815 36.8241 25.0306 37.5241 25.0472 37.6796Z" fill="black"/>
<path d="M26.142 7.95067C26.0424 7.21183 26.142 5.75344 26.2747 5.52023C26.6894 4.8591 28.8787 4.78139 29.3432 5.55908C29.5422 5.90903 29.5256 6.72567 29.4925 7.25068C29.4593 7.7756 29.3432 8.90334 29.3266 9.27285C29.3101 9.5451 26.905 9.97274 26.3743 9.23391C26.2249 9.03955 26.142 7.95067 26.142 7.95067Z" fill="black"/>
<path d="M31.0183 35.7935C32.0301 36.6491 32.8096 36.8046 33.3237 37.1157C33.8379 37.4269 33.7052 38.0296 32.8427 38.2046C32.1461 38.3601 31.0514 38.049 30.3217 38.049C29.5919 38.049 27.9664 38.1463 27.5351 37.7963C27.0376 37.388 27.2531 36.6296 27.2531 36.6296C27.3858 36.202 27.7175 35.2491 27.618 34.4714C27.5185 33.6937 27.3858 33.266 27.137 32.5465C26.8882 31.8272 26.7058 30.0579 26.9381 29.9606C27.1703 29.8633 27.1038 29.9606 27.4025 30.0383C27.701 30.116 28.0327 30.2327 28.6796 30.2327C29.3265 30.2327 30.0397 30.116 30.2885 30.0578C30.5373 29.9995 30.7363 29.941 30.6533 30.5438C30.5704 31.1466 30.3217 32.2743 30.305 33.1493C30.2885 34.0242 30.2885 35.0353 30.3383 35.2103C30.3879 35.3852 30.7529 35.5797 31.0183 35.7935Z" fill="black"/>
<path d="M27.469 9.89507C25.6446 11.7423 22.1116 12.2477 16.8704 14.6198C15.5269 15.2225 11.9443 17.0308 11.0818 18.9168C13.9844 16.9531 15.0625 19.6557 15.2947 22.4361C15.5102 25.0415 16.6216 26.4026 19.4744 26.3247C22.4102 26.247 23.3059 28.2496 24.1186 30.6023C25.6942 21.6 28.2154 19.8501 29.8408 18.3141C33.2908 15.0281 29.0447 9.23394 27.469 9.89507Z" fill="#88CE02"/>
<path d="M27.469 9.89502C23.0902 11.6838 18.7611 12.131 13.6692 15.8058C12.4584 16.6808 9.90412 18.6639 9.40649 22.4555C11.2641 20.0444 15.5599 17.0114 20.8178 15.0865C23.4716 14.1142 25.4123 13.4727 27.7675 12.4033C27.6017 11.1588 27.6017 10.6727 27.469 9.89502Z" fill="#88CE02"/>
<path d="M33.0584 20.55C33.0584 20.55 32.7433 21.8139 32.113 22.2222C32.113 22.2222 31.6486 22.4167 30.7198 21.814C30.4544 21.639 30.2554 21.0363 30.272 20.8417C30.2886 20.3751 30.5373 20.1612 30.5373 20.1612C30.5373 20.1612 30.8028 19.6362 31.1179 19.6557C31.4331 19.6751 31.9638 19.7334 32.1297 19.5584C32.2789 19.364 33.0916 19.9084 33.0584 20.55Z" fill="black"/>
<path d="M26.2913 8.32015C26.2913 8.32015 26.225 9.31186 26.1089 9.93395C26.0922 10.0507 25.5947 10.1089 25.2297 10.284C25.9264 12.6172 30.1227 12.5977 30.6701 11.4506C30.4047 11.2368 29.874 10.9062 29.6252 10.7895C29.3763 10.6728 29.3929 10.6923 29.3763 10.1479C29.3598 9.60338 29.3266 8.59239 29.2934 8.32015C29.2602 8.04791 26.6893 8.04791 26.2913 8.32015Z" fill="black"/>
<path d="M26.4572 8.32011C26.4572 8.32011 26.4572 8.88398 26.4075 9.42837C26.3909 9.68114 26.3743 9.83664 26.3412 10.0311C26.3246 10.1478 26.9051 10.6143 27.0709 11.6449C27.8671 13.7253 29.7082 12.6948 30.4712 11.7032C30.2058 11.4893 29.7745 11.1977 29.277 10.9644C29.0281 10.8476 29.1442 10.595 29.1277 10.0506C29.1111 9.50617 29.0447 8.70891 29.0116 8.41729C28.9783 8.12567 26.8553 8.04787 26.4572 8.32011Z" fill="#EFEFEF"/>
<path d="M26.2914 8.32015C26.2914 8.32015 26.2748 8.67019 26.2251 9.07846C26.4406 9.33114 26.7226 9.68118 26.9383 9.8951C27.0876 10.0507 27.4524 10.0312 27.7842 10.0312C28.0828 10.0312 28.3482 10.0701 28.4643 9.99237C28.7297 9.83678 29.1112 9.44798 29.3268 9.15626C29.3103 8.80631 29.2936 8.47575 29.2771 8.32015C29.2603 8.04791 26.6894 8.04791 26.2914 8.32015Z" fill="black"/>
<path d="M27.8008 9.79777C27.6017 9.79777 27.3694 9.7784 27.187 9.73945C27.1041 9.72007 27.0212 9.66175 26.9548 9.6228C26.8387 9.52553 26.7226 9.40898 26.59 9.29223C26.3245 9.05893 26.308 8.92281 26.308 8.86458C26.4241 7.63958 26.2748 6.60912 26.2748 6.60912C26.2748 6.60912 26.1587 6.0841 26.7889 5.94798C27.4192 5.81186 27.8007 5.79248 27.8007 5.79248C27.8007 5.79248 28.1988 5.79248 28.8125 5.94798C29.4427 6.0841 29.3266 6.60912 29.3266 6.60912C29.3266 6.60912 29.1774 7.63958 29.2935 8.86458C29.2935 8.92281 29.277 9.05893 29.0115 9.29223C28.7793 9.48668 28.5968 9.7005 28.4144 9.73945C28.232 9.7784 27.9997 9.79777 27.8008 9.79777Z" fill="black"/>
<path d="M27.8007 5.28699C26.706 5.28699 26.4903 5.63693 26.1752 6.02583C26.1089 6.123 26.1586 6.70634 26.2748 7.95072H26.4241C26.4241 7.95072 26.3245 7.60068 26.3411 7.19241C26.3577 6.78414 26.4241 6.80361 26.3742 6.70634C26.3079 6.5896 26.1752 6.39515 26.4738 6.2008C26.7723 6.00635 27.2367 6.3563 27.8007 6.37577C28.3646 6.3563 28.8456 6.00635 29.1442 6.2008C29.4427 6.39515 29.31 6.5896 29.2437 6.70634C29.1774 6.82299 29.2603 6.78404 29.2769 7.19241C29.2934 7.60068 29.1939 7.95072 29.1939 7.95072H29.3432C29.4427 6.70634 29.509 6.16195 29.4593 6.06468C29.1773 5.63693 28.8954 5.30637 27.8007 5.28699Z" fill="black"/>
<path d="M33.0585 20.6083C33.0585 20.6083 32.7434 21.7944 32.1298 22.2027C31.997 22.125 32.0136 22.0083 31.8975 21.8332C31.8643 21.775 31.7482 21.736 31.6985 21.6777C31.6487 21.6194 31.6654 21.5222 31.5824 21.4445C31.516 21.3667 31.4663 21.425 31.3999 21.3667C31.3336 21.289 31.3169 21.1917 31.2672 21.1335C31.234 21.0945 31.1014 21.0751 31.0682 21.0362C30.9852 20.9389 30.2556 20.7639 30.2887 20.5695C30.355 20.2778 30.4877 20.0639 30.4877 20.0639C30.4877 20.0639 30.8028 19.5196 31.1179 19.5389C31.433 19.5584 31.7316 19.6362 31.8975 19.4612C32.08 19.2667 33.1084 19.9861 33.0585 20.6083Z" fill="black"/>
<path d="M30.9022 12.0145C30.9022 12.0145 31.9472 11.7228 32.6604 12.52C33.3737 13.3367 33.3238 14.3477 33.1083 14.9699C33.2907 15.2226 33.6224 15.9225 33.3736 16.7586C34.4683 17.8474 33.9873 19.5196 33.0088 20.6279C33.0088 20.6279 32.7765 19.6168 31.8477 19.5585C31.8809 19.1697 30.9852 18.8585 31.3999 17.8474C30.7696 17.6724 30.7862 17.1669 30.6867 16.5448C30.6037 15.9225 30.9022 12.0145 30.9022 12.0145Z" fill="black"/>
<path d="M30.5209 12.5588C30.5209 12.5588 31.7316 11.8395 32.4449 12.6561C33.1581 13.4728 32.959 14.3671 32.7434 14.9893C32.9258 15.242 33.3571 15.9615 33.0917 16.8169C33.0419 17.0114 32.6771 17.0114 32.4116 17.5169C33.075 17.0696 33.4897 17.1863 33.639 17.7501C33.8712 18.6251 33.357 19.675 32.9092 20.2583C32.9092 20.2389 32.8926 20.2194 32.8926 20.2C32.8263 20.4917 32.7433 21.0555 32.2458 21.6777C31.9969 21.9888 31.7979 21.9499 31.5159 21.8721C31.1843 21.7749 31.0681 21.5998 30.6038 21.3083C30.3384 21.1333 30.4876 20.9194 30.4876 20.7444C30.4876 20.7056 30.5208 20.6471 30.5706 20.5694C30.6038 20.4722 30.7033 20.3168 30.8525 20.1417C30.8525 20.1417 31.0681 19.7917 31.3834 19.8111C31.6985 19.8306 32.0302 19.7529 32.1131 19.6556C32.1131 18.9751 31.4497 18.9556 31.6819 17.7891C31.6985 17.7307 31.7815 17.6335 32.0468 17.5946C31.6487 17.4973 31.4663 17.4779 31.1843 17.1669C30.9853 16.953 30.836 16.6808 30.7862 16.3308C30.6867 15.7281 30.5209 12.5588 30.5209 12.5588Z" fill="#EFEFEF"/>
<path d="M27.0212 11.334C26.9217 11.1784 26.4075 10.4007 25.4289 10.0896C25.1469 9.99231 24.9645 10.2646 24.6826 10.459C24.5996 10.4007 24.2347 10.2062 24.0357 10.3423C23.8367 10.4783 23.704 10.6145 23.5049 10.7117C23.4054 10.6534 23.1401 10.6534 22.9244 10.7505C22.7088 10.8283 22.3771 11.0033 22.0619 11.5088C21.8629 12.345 25.5782 11.7227 25.5782 11.7227L27.0212 11.334Z" fill="black"/>
<path d="M27.0543 11.3339C26.5235 11.12 26.6065 10.4006 25.4288 10.284C25.1966 10.2645 25.0473 10.4783 24.8814 10.6144C24.9644 10.7117 25.0473 10.8672 25.0971 11.0227C24.9478 10.8284 24.6824 10.5755 24.417 10.5172C24.1682 10.4589 24.0023 10.6728 23.7369 10.8284C23.7866 10.8866 23.8364 10.9839 23.9027 11.1006C23.6705 10.9256 23.5047 10.8673 23.1896 11.0033C22.9739 11.081 22.5593 11.2949 22.2442 11.82C22.0451 12.6561 25.5946 11.7227 25.5946 11.7227L27.0543 11.3339Z" fill="#88CE02"/>
<path d="M30.1726 11.645C30.1726 11.645 30.1726 11.4311 30.156 11.2367C30.156 11.1979 30.0234 11.1006 30.0234 11.0617L29.9902 11.0228C29.9902 11.0228 30.2556 10.8478 30.4546 10.9451C30.6702 11.0228 30.7863 11.3534 30.7863 11.3534C31.1678 11.1979 31.2009 11.3728 31.3834 11.6061C31.7815 11.5089 31.8312 11.6838 32.0801 12.1117C32.0801 12.1117 31.7815 12.0533 31.201 12.1699C30.637 12.2671 30.1726 11.6255 30.1726 11.645Z" fill="black"/>
<path d="M30.1061 11.5477C30.1061 11.5477 30.2056 11.4505 30.1724 11.431C30.3548 11.3143 30.6036 11.1783 30.7197 11.5477C31.1012 11.3921 31.151 11.6061 31.3334 11.8394C31.7978 11.5867 31.8309 11.8977 31.8642 12.0338C31.7149 12.0338 31.4994 12.0533 31.2008 12.0921C30.6368 12.1894 30.0895 11.5283 30.1061 11.5477Z" fill="#88CE02"/>
<path d="M24.4669 11.0616C24.4669 11.0616 25.4123 11.4504 26.2085 11.3921C27.0046 11.3144 28.3646 11.2366 29.0944 11.7422C29.0944 11.7422 29.8408 11.431 30.5375 11.6449C31.2342 11.8587 32.5112 13.2587 32.1298 14.7364C32.0966 14.8336 31.881 14.9891 31.6322 15.0864C31.6322 15.0864 31.7649 15.7475 31.5327 16.2918C31.3005 16.8169 30.7863 17.8279 30.7697 19.2278C30.7532 19.4611 30.72 19.9472 30.6868 20.1805C29.393 20.1223 27.4027 19.5583 25.4455 19.5972C25.4621 19.3446 25.4787 19.189 25.4953 18.9362H25.545C25.4454 18.2945 25.4123 17.964 25.3127 17.4779C24.6824 17.0113 24.0189 16.4669 23.4551 15.4364C22.9077 14.4058 24.4669 11.0616 24.4669 11.0616Z" fill="black"/>
<path d="M30.8692 21.5612C30.8692 21.5612 31.8976 25.8776 30.6868 27.6859C30.6868 27.6859 30.8692 28.5219 30.4546 29.4163C30.3882 29.8051 30.3052 30.1552 30.2555 30.544C30.0399 32.1578 29.6749 32.8383 29.5754 35.4242L28.5802 35.4049C28.5802 35.4049 28.4641 33.5383 28.1158 32.5467C27.9169 31.9829 27.1372 31.2245 27.1705 30.4663C27.2036 29.8829 27.3031 29.3969 28.1491 28.6191C28.2154 27.4914 27.2534 26.4219 27.4027 22.2222L30.8692 21.5612Z" fill="black"/>
<path d="M30.5706 21.3861C30.836 23.3693 31.4496 26.3053 30.3383 27.744C30.388 28.0163 30.4212 28.4052 30.3549 28.8523C30.3217 29.0856 30.2554 29.3384 30.1725 29.6105C30.0066 30.0772 29.9402 30.7577 29.8905 31.166C29.6748 32.7798 29.6748 32.8577 29.5753 35.4436L28.5801 35.4242C28.5801 35.4242 28.464 33.5576 28.1157 32.5661C27.9167 32.0022 27.502 31.5161 27.4689 30.7578C27.4357 30.1746 27.784 29.008 28.6134 29.0468C28.5636 26.6942 27.6348 27.1608 27.386 22.2611L30.5706 21.3861Z" fill="#EFEFEF"/>
<path d="M24.467 11.0616C24.467 11.0616 24.8319 11.1978 25.2299 11.2366C25.628 11.2755 26.0593 11.2366 26.4407 11.2171C27.2369 11.1394 28.3648 11.0422 29.1111 11.5477C29.1111 11.5477 29.5258 11.3921 29.9737 11.431C30.1727 11.4504 30.3718 11.6449 30.6039 11.7227C31.3337 11.9365 32.0303 13.3559 31.7151 14.6392C31.682 14.7365 31.4497 14.6392 31.1844 14.7365C31.234 15.0087 31.2673 15.6309 31.0019 16.2919C30.72 16.9531 30.3551 17.8086 30.4214 19.4418C28.6798 19.3446 27.9003 19.2085 26.1753 19.1113C26.026 18.3918 25.9264 17.6724 25.9099 17.303C26.1421 17.1669 26.2747 17.0504 26.4572 16.817C25.9597 16.9142 25.7606 16.8753 25.462 16.6808C25.1635 16.4864 24.6327 15.8642 24.3673 15.4559C24.3342 15.417 24.1518 16.0585 23.7371 16.0781C23.5878 15.8253 24.2181 15.1059 24.1019 14.8337C23.6874 13.842 24.467 11.0616 24.467 11.0616Z" fill="#EFEFEF"/>
<path d="M30.7031 19.7722C30.7031 19.7722 30.7363 20.4722 30.7363 20.6472C30.7363 20.8416 30.869 21.4249 30.8855 21.6971C30.7031 22.0666 29.907 22.9027 28.464 23.2138C27.0375 23.5637 25.1467 20.9389 25.1467 20.9389C25.1965 20.6861 25.3624 19.9472 25.4785 19.5584C25.4951 19.5196 25.5282 19.4223 25.5282 19.3834C25.6776 19.1307 30.7031 19.7722 30.7031 19.7722Z" fill="black"/>
<path d="M30.3384 19.8306C30.3384 20.3167 30.4047 20.6667 30.4545 20.9778C30.5374 21.5417 30.6701 21.9111 30.6701 22.2805C30.6701 23.4082 29.4095 23.2137 28.3479 23.2527C26.9215 23.6027 25.7107 20.9778 25.7107 20.9778C25.8102 20.5306 25.8766 20.0252 26.0258 19.5973C26.0424 19.364 26.0756 19.0724 26.0921 18.9363C28.1157 18.9363 29.5421 19.0724 30.3714 19.1695C30.4047 19.3834 30.3715 19.7528 30.3384 19.8306Z" fill="#EFEFEF"/>
<path d="M28.7461 22.3388C28.7461 22.3388 27.867 20.0445 25.2297 20.7251C24.5995 22.8055 23.7536 25.1971 24.3009 27.783C23.7536 28.658 23.1233 29.1441 23.1233 30.7578C23.1233 32.3716 23.1897 32.6439 23.1897 32.6439L25.1302 32.7606C25.1302 32.7606 25.7605 31.8079 26.0093 30.7774C26.0756 30.4857 26.142 29.9608 26.0922 29.358C26.1585 29.2414 26.4405 28.9692 26.4737 28.4442C26.4737 28.4442 27.4192 27.861 27.9665 26.4416C28.4808 25.1581 28.348 24.0498 28.7461 22.3388Z" fill="black"/>
<path d="M28.746 22.3388C28.6963 22.125 28.0328 20.0251 25.578 20.6472C24.1351 25.1582 24.6658 27.0247 24.8814 27.8413C23.9027 29.2995 23.455 29.6106 23.6541 32.566H24.9478C25.5449 31.4578 25.6776 31.0494 25.7107 29.5912C25.7107 29.5329 25.5283 29.7078 25.3956 29.9023C25.4952 29.2996 25.7771 29.1829 25.9927 28.8135C26.0922 28.6579 26.1751 28.4246 26.1751 28.1135C27.3362 27.1997 27.7674 26.0525 28.0162 24.8664C28.2153 24.0499 28.4475 22.7082 28.746 22.3388Z" fill="#EFEFEF"/>
<path d="M24.6492 19.2085C24.6492 19.2085 25.097 19.2279 25.4952 19.3835C25.8767 19.539 25.8767 19.6361 26.0259 19.8307C26.1752 20.0252 26.5401 20.3168 26.4738 20.6084C26.4406 20.764 26.3577 20.8028 26.2415 20.9389C26.1918 20.9973 25.8268 21.4639 25.7439 21.5222C25.6942 21.561 25.6278 21.6195 25.5781 21.6583C25.5284 21.6972 25.3791 21.8139 25.3293 21.8528C25.1634 21.95 25.0473 22.0084 24.8649 21.9889C24.8649 21.9889 24.4502 21.9694 24.1848 21.6389C24.1848 21.6389 24.1516 21.4833 24.218 21.4056C24.218 21.4056 23.8696 21.0556 23.7701 20.8223C23.6705 20.5891 23.6705 20.2585 23.737 20.0836C23.7701 19.9084 24.4169 19.4223 24.6492 19.2085Z" fill="black"/>
<path d="M25.0641 38.1269L25.0144 38.6131C25.0144 38.6131 24.8651 38.8269 23.7538 38.8075C22.6259 38.788 22.3274 38.3798 22.2279 38.1659L22.1616 37.6603C22.1616 37.6603 22.3772 37.2909 22.427 37.2909C22.7919 37.3297 24.0359 37.9131 24.8984 38.0686C24.9812 38.0686 24.9977 38.1074 25.0641 38.1269Z" fill="black"/>
<path d="M27.469 37.1353C27.469 37.3491 27.4524 37.3491 27.4524 37.563C27.6514 37.738 28.1491 37.8352 29.0944 37.8157C30.4711 37.7768 31.7483 38.3018 33.3073 37.9907L33.3239 37.6407L33.1747 37.6213L27.6514 37.0963L27.469 37.1353Z" fill="black"/>
<path d="M28.6798 37.8157C28.8126 37.8157 28.9452 37.8157 29.0945 37.8157C29.9902 37.7769 30.8361 38.0102 31.7483 38.0685C32.2293 38.049 32.8264 37.9129 32.7767 37.5047L28.0662 37.038C27.7842 37.4074 27.9997 37.7185 28.6798 37.8157Z" fill="black"/>
<path d="M23.2725 29.6301C23.4218 29.7468 24.4336 30.4468 26.0756 30.3495C26.0424 30.7189 26.059 31.4384 25.3292 32.7021C24.9643 33.3243 24.6491 34.4132 24.5828 35.7937C24.5995 36.1048 24.7487 36.377 24.5497 36.7853C24.616 37.038 24.8814 37.5435 25.0141 37.8546C25.1467 38.1658 25.2131 38.5158 24.334 38.5352C23.4383 38.5546 21.9953 38.438 22.1944 37.6214C22.294 37.1937 22.5759 36.7465 22.6091 36.5714C22.6423 36.3964 22.6423 35.8715 22.9242 35.5215C23.173 34.5493 23.0901 33.616 23.0404 32.7411C22.9574 31.8272 22.9408 30.369 23.2725 29.6301Z" fill="black"/>
<path d="M24.8151 13.7837C25.9928 11.9366 24.9975 10.459 23.1068 10.9061C22.3438 11.0811 21.5809 11.7033 21.531 12.831C21.2822 12.8698 20.7183 12.9087 20.4363 14.1142C20.2208 15.0475 20.1047 15.2225 19.7231 15.6891C19.4743 16.0196 19.7397 16.7002 19.9221 17.1863C20.5359 18.8584 22.4267 19.014 23.7038 20.2778C24.1351 20.1417 24.5829 19.5779 24.7156 19.2085C23.6375 17.7112 23.8696 17.128 23.4384 16.3503C23.9028 16.1558 24.9644 15.3975 24.8151 13.7837Z" fill="black"/>
<path d="M24.5829 13.6671C24.6492 13.5503 24.7653 13.2976 24.8152 13.2004C24.8318 13.1809 25.0142 13.5503 25.0308 13.5309C25.4786 12.6754 25.5947 11.431 25.0805 11.3143C24.9643 11.2949 24.7488 11.2366 24.5663 11.1587C24.2346 11.0226 23.9361 11.0226 23.4053 11.1394C22.6755 11.2949 21.9457 11.917 21.9457 12.8115C21.9457 12.8698 22.4598 13.0448 22.6091 13.7642C22.3603 13.3559 21.929 12.9087 21.4149 13.2975C20.8675 13.7058 21.1495 14.6391 20.4197 15.6112C20.1709 15.9418 20.2041 16.3307 20.4694 17.1084C20.9006 18.3334 22.9408 18.9944 24.0521 20.161C24.3175 20.0249 24.4999 19.7138 24.6326 19.4805C23.8862 18.5667 23.5876 17.7111 23.3721 17.0889C23.1067 16.3696 22.8081 15.9613 22.2275 15.4167C22.5262 15.5528 22.7584 15.6889 22.891 15.8056C23.0402 15.9222 23.2558 15.9417 23.4549 15.8639C24.1683 15.5725 24.5498 14.4058 24.5829 13.6671Z" fill="#EFEFEF"/>
<path d="M31.7979 13.9782C31.7481 14.7171 31.2837 14.3476 31.035 14.2115C30.5373 13.9588 30.0397 13.7838 29.4592 13.7838C28.8787 13.7838 28.1323 13.8421 27.4855 14.0366C26.5898 14.3282 26.3244 14.3088 25.9264 14.0754C25.5283 13.8226 24.8318 13.2004 24.8318 13.2004C24.8318 13.2004 24.8151 13.3949 24.981 13.6477C25.1966 13.9588 25.6777 14.3476 26.3245 14.6003C26.6396 14.7171 26.8884 14.6392 27.1704 14.5615C28.6466 14.1337 30.2057 14.0559 31.516 14.9892C31.5823 15.0281 31.8146 14.9114 31.9141 14.7364C32.0467 14.4838 31.7979 13.9782 31.7979 13.9782Z" fill="black"/>
<path d="M24.2512 21.3861C24.3839 21.4834 24.5497 21.5417 24.7321 21.7167C24.7321 21.7167 24.5829 21.7167 24.5166 21.639C24.4336 21.5807 24.2678 21.4057 24.2512 21.3861Z" fill="#001423"/>
<path d="M29.0448 5.96749C28.995 5.79251 28.6301 5.48132 27.7842 5.48132C26.872 5.48132 26.6066 5.81189 26.5901 5.98687C26.5901 6.04519 26.5237 6.66748 26.5071 6.92015C26.5071 6.92015 26.5071 7.23125 26.5236 7.69784C26.5402 8.00894 26.6066 8.18391 26.6397 8.59228C26.6729 9.01993 26.7725 9.29217 26.9549 9.64221C27.0378 9.70044 27.1041 9.75886 27.1871 9.77833C27.5189 9.85604 28.0994 9.87551 28.4145 9.77833C28.5969 9.72001 28.8291 9.35059 28.8789 9.02002C28.9452 8.61175 29.0116 8.32003 29.0282 8.06736C29.0613 7.81468 29.0779 7.25072 29.0945 7.09512C29.1443 6.66748 29.0613 6.00634 29.0448 5.96749Z" fill="#EFEFEF"/>
<path d="M27.303 29.9995C27.303 29.9995 28.1821 30.4467 30.3549 30.0578C30.3549 30.0578 29.7413 33.6743 30.0233 35.4825C30.0233 35.4825 30.3052 35.9492 32.3951 36.8435C32.3951 36.8435 33.3239 37.1158 33.2907 37.6602C33.2907 37.6602 33.3239 37.7769 32.1961 37.738C31.0683 37.699 30.0066 37.4657 29.2603 37.4657C28.5139 37.4657 27.7177 37.5046 27.5851 37.2519C27.4358 37.0186 27.6182 36.4158 27.8338 36.0657C28.0662 35.6964 27.9997 35.4241 27.9832 34.7631C27.9333 33.0327 26.8054 31.2439 27.303 29.9995Z" fill="black"/>
<path d="M27.1206 30.3301C27.0045 30.5245 27.1371 31.2633 27.303 31.9827C27.4689 32.7021 27.8338 33.1299 27.9167 34.3159C27.9996 35.4825 28.0162 35.6381 27.7342 36.3185C27.4522 36.9989 27.3693 37.6212 28.3479 37.6407C29.3264 37.6601 29.8573 37.6212 30.8525 37.7963C31.8477 37.9712 32.196 38.0296 32.7434 37.9324C33.2907 37.8352 33.4068 37.6212 33.1746 37.4268C32.9424 37.2324 31.9803 37.0186 31.5657 36.6296C31.1676 36.2796 30.0398 35.6963 30.0232 35.5408C29.9735 35.0158 29.9569 33.1104 30.0398 32.4882C30.1228 31.8659 30.2388 30.9715 30.272 30.7383C30.3052 30.505 30.471 30.2716 30.189 30.3494C29.9071 30.4271 28.8456 30.6021 28.0495 30.5438C27.2533 30.4856 27.1704 30.2717 27.1206 30.3301Z" fill="#88CE02"/>
<path opacity="0.3" d="M27.6845 36.3381C27.9664 36.4936 28.3812 36.6104 28.6963 36.6104C28.6963 36.6104 28.5801 37.252 28.7626 37.6408C28.945 38.0297 27.4357 37.7964 27.4357 37.7964L27.3694 36.4159L27.6845 36.3381Z" fill="black"/>
<path opacity="0.3" d="M32.0799 38.0102C32.3453 37.9129 32.5278 37.563 32.3122 37.2325C32.0799 36.9019 31.8809 36.8436 32.1794 36.8242C32.478 36.8047 33.5727 37.5824 33.5727 37.5824L33.0087 38.1851L32.0799 38.0102Z" fill="black"/>
<path opacity="0.3" d="M27.071 31.0883C27.4525 31.2439 28.033 31.2828 28.5306 31.2633C29.0282 31.2439 29.7746 31.166 30.2556 30.9717C30.7366 30.7772 30.5376 31.1855 30.5376 31.1855L30.2722 31.4772C30.2722 31.4772 29.6419 31.7689 28.6136 31.7495C27.4028 31.73 27.0378 31.5745 27.0378 31.5745L27.071 31.0883Z" fill="black"/>
<path opacity="0.3" d="M27.104 32.0605C27.4856 32.2161 28.066 32.255 28.5636 32.2355C29.0612 32.2161 29.7247 32.2161 30.2057 32.0022C30.4047 31.9245 30.2887 32.255 30.2887 32.255L30.2057 32.4299C30.2057 32.4299 29.5588 32.7022 28.547 32.6826C27.3362 32.6632 27.1206 32.5465 27.1206 32.5465L27.104 32.0605Z" fill="black"/>
<path d="M26.0093 18.4308C26.0093 18.5669 27.303 19.3251 28.0162 19.4807C28.7295 19.6362 30.2222 19.4807 30.4544 19.4224L30.4212 19.6946C30.4212 19.6946 28.6465 20.0057 27.2864 19.578C25.9263 19.1502 26.0756 19.053 26.0756 19.053L26.0093 18.4308Z" fill="black"/>
<path d="M23.2393 35.016C23.4383 35.1327 24.1515 35.3465 24.6159 35.2299C24.6822 35.2104 24.6159 33.8882 24.7984 33.2855C25.0638 32.4494 25.495 31.7689 25.694 30.2913C24.9973 30.2135 24.2013 29.9996 23.7866 29.844C23.2559 31.7495 23.4384 33.3827 23.2393 35.016Z" fill="#EFEFEF"/>
<path d="M24.3507 36.2409C24.4668 36.2798 24.5497 36.4353 24.5829 36.3382C24.6492 36.1631 24.4668 35.8326 24.4502 35.5994C24.4502 35.5799 24.4502 35.5994 24.4502 35.5799C24.3009 35.4244 23.2892 35.4049 23.3555 35.4826C23.2394 35.7354 23.057 35.6965 22.9907 36.2021C22.9576 36.4547 23.223 36.2409 23.4716 36.2214C23.0239 36.5714 22.5097 37.0187 22.4267 37.4075C22.3272 37.9519 22.4931 38.1075 22.9907 38.3992C23.422 38.5159 23.9361 38.5353 24.3342 38.5159C24.782 38.4186 24.865 38.1659 24.7323 37.8159C24.5331 37.2909 24.4004 36.6103 24.3507 36.2409Z" fill="#EFEFEF"/>
<path d="M24.5331 10.9839C25.0805 11.3533 25.8435 11.2561 26.1254 11.2367C26.1918 11.2367 26.8552 11.1005 26.8884 11.1199C26.9547 11.1394 26.9547 11.1977 26.9547 11.1977C26.9547 11.1977 26.7059 11.3532 26.142 11.3921C25.6112 11.4309 24.981 11.3921 24.6327 11.1977C24.218 10.9839 24.5331 10.9839 24.5331 10.9839Z" fill="black"/>
<path d="M30.1725 11.3533C30.272 11.431 30.9189 11.7228 31.2009 12.0727C31.4497 12.3839 31.317 12.3644 31.2672 12.2866C31.2009 12.1894 30.6867 11.7811 30.4877 11.6839C30.2886 11.5867 30.0398 11.4117 30.0398 11.3728C30.0398 11.334 30.1725 11.3533 30.1725 11.3533Z" fill="black"/>
<path d="M24.4501 19.4223C24.9312 19.3834 25.4288 19.5195 25.7439 19.9083C25.9098 20.1028 26.1752 20.3166 26.142 20.511C26.142 20.5694 26.0424 20.725 25.9596 20.8416C25.9099 20.9193 25.7606 21.0943 25.7108 21.1527C25.6445 21.211 25.4122 21.425 25.3625 21.4638C25.3127 21.5028 25.2464 21.6 25.1966 21.6194C25.0308 21.7167 24.8483 21.6389 24.6825 21.5417C24.5167 21.4444 24.7157 21.425 24.5332 21.2695C24.0854 20.9 23.8366 20.6472 24.0191 19.9278C24.0356 19.7917 24.218 19.6361 24.4501 19.4223Z" fill="#EFEFEF"/>
<path opacity="0.4" d="M20.2207 14.9697C18.7279 15.6697 14.9296 17.8863 13.8516 18.5668C14.7472 19.2279 15.1619 20.8222 15.2946 22.436C15.3111 22.5916 15.3277 22.7277 15.3443 22.8832C15.3609 23.0193 15.3775 23.1165 15.394 23.1749C15.394 23.1944 15.394 23.2333 15.4106 23.2526C16.3893 20.1223 19.8889 16.8169 20.0216 16.5641C20.0879 16.4475 19.9387 15.9419 20.1709 15.456C20.4695 14.8336 21.0501 14.5613 20.2207 14.9697Z" fill="black"/>
<path opacity="0.4" d="M23.7702 29.6496C24.5332 27.8608 24.5498 26.1497 24.5332 24.147C24.5332 23.3109 25.0473 22.1248 24.782 22.4554C23.7868 23.758 21.2823 26.208 19.4744 26.3441C22.0121 26.2469 23.0072 27.744 23.7702 29.6496Z" fill="black"/>
<path d="M12.3918 20.2194C13.3373 19.4222 18.2302 16.3697 19.4079 15.9418C20.5855 15.4946 20.2206 14.9696 20.2206 14.9696C20.2206 14.9696 15.4437 17.3806 12.5909 19.4611" fill="black"/>
<path opacity="0.4" d="M26.3245 14.6003C25.943 14.4253 25.6444 14.9504 25.7439 15.4559C25.8435 15.9614 26.7392 16.5252 26.6894 18.3724C26.6562 19.889 26.3742 20.5111 26.3742 20.5111L25.7439 19.5779C25.7439 19.5779 25.6444 17.478 25.4288 17.1669C25.2133 16.8558 24.5332 16.2919 24.2678 16.0003C24.0024 15.7086 24.5663 15.3198 24.5332 14.7753C24.5 14.2504 24.8152 13.2004 24.8152 13.2004L26.3245 14.6003Z" fill="black"/>
<path opacity="0.4" d="M28.6298 22.8832C28.5967 24.3414 28.8787 26.4997 28.9947 27.5302C29.1109 28.5607 29.2601 28.6385 28.9947 29.1052C28.7294 29.5524 28.3811 30.2912 28.3811 30.2912L27.2366 30.1745C27.2366 30.1745 28.1488 28.8135 28.1985 28.5607C28.2483 28.308 27.7341 26.3831 27.7341 26.3831L28.6298 22.8832Z" fill="black"/>
<path opacity="0.4" d="M26.4241 9.27291C26.6563 9.87553 26.9382 10.1478 27.386 10.3228C27.6514 10.4395 28.6963 10.5951 29.111 10.0506C29.2934 9.79782 29.1773 9.11731 29.1773 9.11731L28.2319 10.0116L26.9548 9.7395L26.8055 9.29228L26.4241 9.27291Z" fill="black"/>
<path d="M26.5235 10.6144C26.9548 10.9449 28.0329 11.256 28.3314 11.3144C28.63 11.3921 29.111 10.9449 29.3432 10.8283C29.5921 10.6922 30.0233 10.6144 30.5209 11.1394C30.5706 11.1977 30.4047 11.4505 30.4047 11.4505C30.3881 11.431 30.2886 11.431 30.1559 11.3532C30.0232 11.2755 29.9071 11.2171 29.7081 11.2366C28.8787 11.3532 28.7461 11.6838 28.0163 11.4892C27.2865 11.2947 27.104 11.1393 26.3909 11.1782" fill="#88CE02"/>
<path d="M26.5235 10.6144C26.9548 10.9449 28.0329 11.256 28.3314 11.3144C28.63 11.3921 29.111 10.9449 29.3432 10.8283C29.5921 10.6922 30.0233 10.6144 30.5209 11.1394C30.5706 11.1977 30.4047 11.4505 30.4047 11.4505C30.3881 11.431 30.2886 11.431 30.1559 11.3532C30.0232 11.2755 29.9071 11.2171 29.7081 11.2366C28.8787 11.3532 28.7461 11.6838 28.0163 11.4892C27.2865 11.2947 27.104 11.1393 26.3909 11.1782" stroke="black" stroke-width="1.586" stroke-linejoin="round"/>
<path d="M26.3743 10.6727C26.9217 10.945 27.9832 11.2366 28.2817 11.3144C28.5802 11.3922 29.0612 11.0421 29.2935 10.8672C29.7082 10.5561 30.2389 10.8089 30.4877 11.1394C30.6535 11.3532 30.72 11.4894 30.72 11.5477C30.72 11.6254 30.521 11.5477 30.521 11.5477C30.4049 11.4894 30.2721 11.47 30.1727 11.3921C30.04 11.3144 29.9072 11.1977 29.7083 11.2171C28.8789 11.3339 28.7131 11.6643 27.9999 11.4699C27.2867 11.2754 27.1042 11.1005 26.3413 11.1587" fill="#88CE02"/>
<path d="M23.8034 28.8328C23.7702 28.7939 23.8365 28.7551 23.8034 28.7551C23.5878 28.7551 23.2892 28.5606 23.1233 28.2884C22.4101 27.0829 21.3651 26.2858 19.4743 26.3441C16.638 26.4218 15.5101 25.0609 15.2946 22.4555C15.1784 21.0361 14.8467 19.6556 14.1667 18.8778L13.7686 19.1695C14.5315 19.9472 14.7803 21.2111 14.9462 22.9415C15.2116 25.5469 17.0029 26.7525 19.0928 26.7913C21.2656 26.8302 22.0451 27.3552 22.8578 28.6385C23.1232 29.0468 23.4218 29.1829 23.654 29.2412L23.8034 28.8328Z" fill="black"/>
<path opacity="0.4" d="M31.4995 16.3308C31.5493 16.6224 31.6819 17.1863 31.9473 17.4584C32.0635 17.5946 32.08 17.6334 31.9805 17.6334C31.8809 17.6334 31.1512 17.5946 31.1512 17.5946L30.9521 17.1863L31.4995 16.3308Z" fill="black"/>
</g>
<defs>
<clipPath id="clip0_255_87">
<rect width="25" height="34" fill="white" transform="translate(9 5)"/>
</clipPath>
</defs>
</svg>
