<svg width="44" height="44" viewBox="0 0 44 44" fill="none" xmlns="http://www.w3.org/2000/svg">
<g clip-path="url(#clip0_186_80)">
<rect width="44" height="44" rx="22" fill="black" fill-opacity="0.9"/>
<path d="M27.7852 17.4738L27.7752 17.4695C27.7695 17.4674 27.7638 17.4653 27.7588 17.4603C27.7507 17.4515 27.7446 17.441 27.7411 17.4295C27.7377 17.418 27.7369 17.4059 27.7389 17.3941L28.2899 14.0292L30.8737 16.6109L28.1865 17.7529C28.179 17.7559 28.171 17.7574 28.163 17.7572H28.1523C28.1487 17.755 28.1452 17.7522 28.138 17.7451C28.038 17.6339 27.9184 17.5419 27.7852 17.4738ZM31.533 17.2688L34.2957 20.0284C34.8695 20.6023 35.1567 20.8885 35.2615 21.2203C35.2772 21.2694 35.29 21.3186 35.3 21.3691L28.6976 18.576C28.694 18.5745 28.6905 18.5731 28.6869 18.5717C28.6605 18.561 28.6299 18.5489 28.6299 18.5219C28.6299 18.4948 28.6612 18.482 28.6876 18.4713L28.6961 18.4678L31.533 17.2688ZM35.1874 22.2548C35.0448 22.5225 34.7668 22.8002 34.2964 23.2709L31.1816 26.3815L27.153 25.5435L27.1316 25.5393C27.096 25.5336 27.0582 25.5272 27.0582 25.4951C27.0429 25.3291 26.9935 25.168 26.9132 25.0219C26.8329 24.8758 26.7233 24.7477 26.5913 24.6457C26.5749 24.6293 26.5792 24.6037 26.5842 24.5802C26.5842 24.5766 26.5842 24.5731 26.5856 24.5702L27.3433 19.9238L27.3461 19.9081C27.3504 19.8725 27.3568 19.8312 27.3889 19.8312C27.5513 19.811 27.708 19.7588 27.85 19.6775C27.9919 19.5962 28.1163 19.4875 28.2157 19.3577C28.2221 19.3506 28.2264 19.3428 28.235 19.3385C28.2578 19.3278 28.2849 19.3385 28.3084 19.3485L35.1874 22.2548ZM30.4652 27.0971L25.3432 32.2135L26.22 26.8308L26.2214 26.8237C26.2221 26.8166 26.2235 26.8095 26.2257 26.803C26.2328 26.786 26.2513 26.7788 26.2691 26.7717L26.2777 26.7682C26.4697 26.6863 26.6394 26.5602 26.7731 26.4001C26.7902 26.3801 26.8109 26.3609 26.8372 26.3573C26.8441 26.3562 26.851 26.3562 26.8579 26.3573L30.4645 27.0978L30.4652 27.0971ZM24.2591 33.2964L23.6818 33.8731L17.2989 24.6585C17.2966 24.6552 17.2942 24.6518 17.2917 24.6486C17.2818 24.635 17.2711 24.6215 17.2732 24.6058C17.2739 24.5944 17.281 24.5845 17.2889 24.5759L17.296 24.5667C17.3153 24.5382 17.3317 24.5097 17.3495 24.4791L17.3637 24.4542L17.3659 24.452C17.3758 24.435 17.3851 24.4186 17.4022 24.4093C17.4172 24.4022 17.4379 24.4051 17.4542 24.4086L24.5257 25.8653C24.5455 25.8684 24.5641 25.8765 24.5799 25.8888C24.5891 25.8981 24.5913 25.9081 24.5934 25.9195C24.6427 26.1059 24.7345 26.2784 24.8616 26.4235C24.9887 26.5686 25.1477 26.6824 25.3261 26.7561C25.3461 26.766 25.3375 26.7881 25.3283 26.8116C25.3237 26.8219 25.3201 26.8326 25.3176 26.8436C25.2285 27.3847 24.4644 32.0397 24.2591 33.2964ZM23.0531 34.5004C22.6276 34.9212 22.3767 35.144 22.093 35.2337C21.8133 35.3221 21.5131 35.3221 21.2334 35.2337C20.9012 35.1284 20.614 34.8421 20.0402 34.2683L13.6302 27.8653L15.3045 25.2715C15.3124 25.2587 15.3202 25.2473 15.333 25.2381C15.3509 25.2253 15.3765 25.231 15.3979 25.2381C15.7822 25.3539 16.1948 25.333 16.5654 25.179C16.5847 25.1719 16.6039 25.1669 16.6189 25.1804C16.6264 25.1872 16.6331 25.1949 16.6388 25.2032L23.0531 34.5004ZM13.0122 27.248L11.5418 25.7792L14.4456 24.5418C14.453 24.5385 14.461 24.5368 14.4691 24.5368C14.4934 24.5368 14.5076 24.561 14.5205 24.5831C14.5496 24.6279 14.5806 24.6716 14.6131 24.7141L14.6224 24.7254C14.6309 24.7376 14.6252 24.7497 14.6167 24.761L13.0122 27.248ZM10.891 25.1291L9.03067 23.2709C8.7142 22.9547 8.48469 22.7255 8.32503 22.5282L13.9816 23.7002C13.9887 23.7015 13.9958 23.7027 14.003 23.7037C14.0379 23.7094 14.0764 23.7158 14.0764 23.7486C14.0764 23.7842 14.0344 23.8006 13.9987 23.8141L13.9823 23.8212L10.891 25.1291ZM8 21.5727C8.00645 21.453 8.028 21.3346 8.06415 21.2203C8.16964 20.8885 8.45618 20.6023 9.03067 20.0284L11.4113 17.6504C12.5075 19.2395 13.6066 20.8265 14.7086 22.4115C14.7279 22.4371 14.7493 22.4656 14.7272 22.4869C14.6231 22.6016 14.519 22.7269 14.4456 22.8629C14.4377 22.8804 14.4254 22.8955 14.41 22.907C14.4007 22.9127 14.3907 22.9106 14.38 22.9084H14.3786L8 21.5727ZM12.0486 17.0139L15.2496 13.8163C15.5504 13.948 16.6452 14.4101 17.6246 14.8231C18.3659 15.1363 19.0416 15.4211 19.254 15.5137C19.2754 15.5222 19.2946 15.5308 19.3039 15.5521C19.3096 15.565 19.3068 15.5813 19.3039 15.5949C19.2532 15.8257 19.2608 16.0654 19.3258 16.2926C19.3909 16.5198 19.5115 16.7273 19.6767 16.8964C19.6981 16.9177 19.6767 16.9484 19.6582 16.9747L19.6482 16.9897L16.3979 22.0185C16.3894 22.0327 16.3815 22.0448 16.3673 22.0541C16.3502 22.0647 16.3259 22.0598 16.306 22.0548C16.1796 22.0217 16.0496 22.004 15.9189 22.0021C15.802 22.0021 15.6752 22.0234 15.5469 22.0469C15.5326 22.0491 15.5191 22.0519 15.5077 22.0434C15.4951 22.0331 15.4842 22.0208 15.4756 22.0071L12.0486 17.0139ZM15.8961 13.1705L20.0402 9.03101C20.614 8.45786 20.9012 8.17093 21.2334 8.06626C21.5131 7.97791 21.8133 7.97791 22.093 8.06626C22.4251 8.17093 22.7124 8.45786 23.2862 9.03101L24.1843 9.92812L21.2369 14.4877C21.2297 14.501 21.2197 14.5126 21.2077 14.5219C21.1899 14.534 21.165 14.529 21.1436 14.5219C20.9112 14.4515 20.6651 14.4386 20.4267 14.4845C20.1882 14.5304 19.9646 14.6337 19.775 14.7853C19.7558 14.8053 19.7273 14.7939 19.7031 14.7832C19.3182 14.6159 16.3245 13.3521 15.8961 13.1705ZM24.8101 10.5533L27.5315 13.2716L26.8757 17.3286V17.3392C26.8751 17.3485 26.8732 17.3576 26.87 17.3663C26.8629 17.3805 26.8486 17.3834 26.8344 17.3877C26.6942 17.4301 26.5621 17.4958 26.4438 17.582C26.4387 17.5857 26.4339 17.5897 26.4295 17.5941C26.4217 17.6027 26.4138 17.6105 26.401 17.6119C26.3906 17.6123 26.3802 17.6106 26.3704 17.607L22.2234 15.8469L22.2156 15.8434C22.1892 15.8327 22.1579 15.8199 22.1579 15.7928C22.1335 15.562 22.058 15.3394 21.9369 15.1413C21.9169 15.1086 21.8948 15.0744 21.9119 15.0409L24.8101 10.5533ZM22.0075 16.6807L25.8949 18.3254C25.9163 18.3353 25.9398 18.3446 25.9491 18.3666C25.9528 18.3799 25.9528 18.394 25.9491 18.4072C25.9377 18.4642 25.9277 18.529 25.9277 18.5945V18.7034C25.9277 18.7305 25.8999 18.7419 25.8743 18.7525L25.8664 18.7554C25.2506 19.0181 17.2205 22.4385 17.2083 22.4385C17.1962 22.4385 17.1834 22.4385 17.1713 22.4264C17.1499 22.4051 17.1713 22.3752 17.1905 22.3481C17.1939 22.3434 17.1973 22.3387 17.2005 22.3339L20.3952 17.3926L20.4009 17.3841C20.4194 17.3542 20.4408 17.3207 20.475 17.3207L20.5071 17.3257C20.5798 17.3357 20.6439 17.3449 20.7088 17.3449C21.1935 17.3449 21.6425 17.1093 21.9134 16.7063C21.9198 16.6955 21.928 16.6859 21.9376 16.6778C21.9569 16.6636 21.9854 16.6707 22.0075 16.6807ZM17.5555 23.2203L26.3083 19.4916C26.3083 19.4916 26.3212 19.4916 26.3333 19.5037C26.381 19.5514 26.4217 19.5834 26.4609 19.6133L26.4801 19.6255C26.4979 19.6354 26.5158 19.6468 26.5172 19.6653C26.5172 19.6724 26.5172 19.6767 26.5158 19.6831L25.7659 24.284L25.7631 24.3025C25.7581 24.3381 25.7531 24.3787 25.7196 24.3787C25.5197 24.3922 25.3261 24.4542 25.1555 24.5592C24.985 24.6643 24.8427 24.8094 24.741 24.9818L24.7374 24.9875C24.7274 25.0038 24.7181 25.0195 24.7017 25.028C24.6868 25.0352 24.6675 25.0323 24.6519 25.0288L17.6716 23.5905C17.6645 23.5891 17.5633 23.221 17.5555 23.2203Z" fill="url(#paint0_radial_186_80)"/>
</g>
<defs>
<radialGradient id="paint0_radial_186_80" cx="0" cy="0" r="1" gradientUnits="userSpaceOnUse" gradientTransform="translate(7.0834 21.2649) rotate(90) scale(2727 3151.88)">
<stop stop-color="#20C6B7"/>
<stop offset="1" stop-color="#4D9ABF"/>
</radialGradient>
<clipPath id="clip0_186_80">
<rect width="44" height="44" rx="22" fill="white"/>
</clipPath>
</defs>
</svg>
