<svg width="44" height="44" viewBox="0 0 44 44" fill="none" xmlns="http://www.w3.org/2000/svg">
<rect width="44" height="44" rx="22" fill="black" fill-opacity="0.9"/>
<g clip-path="url(#clip0_225_5)">
<path d="M31.6864 27.9934L23.1129 9.78619C22.8958 9.3297 22.446 9.02893 21.9412 9.00281C21.4353 8.96891 20.9525 9.2192 20.6886 9.6522L11.3896 24.7134C11.1009 25.1777 11.107 25.7671 11.4052 26.2253L15.9515 33.2657C16.3048 33.8085 16.973 34.0542 17.5937 33.8696L30.7871 29.9671C31.189 29.8496 31.5203 29.5636 31.6951 29.1831C31.8676 28.8044 31.8647 28.369 31.687 27.9927L31.6864 27.9934ZM29.7669 28.7742L18.5715 32.0848C18.23 32.1863 17.9022 31.8903 17.9732 31.5457L21.973 12.3937C22.0478 12.0354 22.5426 11.9787 22.6991 12.3102L30.1034 28.0339C30.1697 28.1757 30.1705 28.3394 30.1056 28.4818C30.0408 28.6243 29.9168 28.7311 29.7663 28.7742H29.7669Z" fill="#aab8bdff"/>
</g>
<defs>
<clipPath id="clip0_225_5">
<rect width="25" height="25" fill="white" transform="translate(9 9)"/>
</clipPath>
</defs>
</svg>
