<svg xmlns="http://www.w3.org/2000/svg" fill="none" viewBox="0 0 44 44" height="44" width="44">
<rect fill-opacity="0.9" fill="black" rx="22" height="44" width="44"></rect>
<path fill="#61DAFB" d="M37 22.503C37 20.5845 34.5112 18.7663 30.6955 17.6388C31.576 13.8844 31.1847 10.8974 29.4603 9.94109C29.0628 9.71677 28.598 9.61052 28.0905 9.61052V10.9269C28.3718 10.9269 28.598 10.98 28.7876 11.0804C29.6192 11.5408 29.98 13.2941 29.6987 15.5491C29.6315 16.104 29.5214 16.6884 29.3869 17.2846C28.1883 17.0012 26.8797 16.7828 25.5039 16.6412C24.6784 15.5491 23.8223 14.5573 22.96 13.6896C24.9535 11.9009 26.8247 10.921 28.0966 10.921V9.60461C26.415 9.60461 24.2136 10.7616 21.9878 12.7687C19.7619 10.7734 17.5605 9.62823 15.8789 9.62823V10.9446C17.1447 10.9446 19.022 11.9186 21.0155 13.6955C20.1594 14.5633 19.3033 15.5491 18.49 16.6412C17.108 16.7828 15.7994 17.0012 14.6009 17.2905C14.4603 16.7002 14.3563 16.1276 14.2829 15.5786C13.9955 13.3236 14.3502 11.5704 15.1757 11.104C15.3592 10.9978 15.5976 10.9505 15.8789 10.9505V9.63413C15.3653 9.63413 14.9005 9.74039 14.4969 9.96471C12.7786 10.921 12.3934 13.9021 13.2801 17.6447C9.47656 18.7781 7 20.5904 7 22.503C7 24.4215 9.48879 26.2397 13.3045 27.3672C12.424 31.1216 12.8153 34.1085 14.5397 35.0649C14.9372 35.2892 15.402 35.3954 15.9156 35.3954C17.5972 35.3954 19.7986 34.2384 22.0245 32.2313C24.2503 34.2266 26.4517 35.3718 28.1333 35.3718C28.647 35.3718 29.1117 35.2656 29.5153 35.0412C31.2336 34.0849 31.6188 31.1038 30.7322 27.3613C34.5234 26.2338 37 24.4156 37 22.503ZM29.0383 18.5656C28.8121 19.3271 28.5308 20.1122 28.2128 20.8973C27.9621 20.4251 27.6991 19.9528 27.4117 19.4806C27.1305 19.0083 26.8308 18.5479 26.5312 18.0992C27.3995 18.2232 28.2373 18.3767 29.0383 18.5656ZM26.2377 24.8524C25.7607 25.6493 25.2715 26.4049 24.764 27.1074C23.8528 27.1842 22.9295 27.2255 22 27.2255C21.0766 27.2255 20.1533 27.1842 19.2483 27.1133C18.7407 26.4109 18.2454 25.6612 17.7684 24.8701C17.3037 24.0968 16.8818 23.3117 16.4965 22.5207C16.8757 21.7297 17.3037 20.9386 17.7623 20.1653C18.2393 19.3684 18.7285 18.6128 19.236 17.9103C20.1472 17.8336 21.0705 17.7923 22 17.7923C22.9234 17.7923 23.8467 17.8336 24.7517 17.9044C25.2593 18.6069 25.7546 19.3566 26.2316 20.1476C26.6963 20.9209 27.1182 21.706 27.5035 22.4971C27.1182 23.2881 26.6963 24.0791 26.2377 24.8524ZM28.2128 24.085C28.543 24.876 28.8243 25.6671 29.0567 26.4345C28.2556 26.6234 27.4117 26.7827 26.5373 26.9067C26.8369 26.4522 27.1366 25.9858 27.4179 25.5077C27.6991 25.0354 27.9621 24.5573 28.2128 24.085ZM22.0122 30.3837C21.4435 29.817 20.8748 29.1853 20.3123 28.4947C20.8626 28.5183 21.4252 28.536 21.9939 28.536C22.5687 28.536 23.1374 28.5242 23.6938 28.4947C23.1435 29.1853 22.5748 29.817 22.0122 30.3837ZM17.4627 26.9067C16.5944 26.7827 15.7566 26.6293 14.9556 26.4404C15.1818 25.6789 15.4631 24.8937 15.7811 24.1086C16.0318 24.5809 16.2947 25.0531 16.5821 25.5254C16.8695 25.9976 17.1631 26.4581 17.4627 26.9067ZM21.9817 14.6223C22.5503 15.189 23.119 15.8206 23.6816 16.5113C23.1313 16.4877 22.5687 16.47 22 16.47C21.4252 16.47 20.8565 16.4818 20.3 16.5113C20.8504 15.8206 21.4191 15.189 21.9817 14.6223ZM17.4566 18.0992C17.157 18.5538 16.8573 19.0201 16.576 19.4983C16.2947 19.9705 16.0318 20.4428 15.7811 20.915C15.4509 20.124 15.1696 19.333 14.9372 18.5656C15.7383 18.3826 16.5821 18.2232 17.4566 18.0992ZM11.9225 25.49C9.75785 24.5986 8.35752 23.4298 8.35752 22.503C8.35752 21.5762 9.75785 20.4015 11.9225 19.516C12.4484 19.2976 13.0232 19.1028 13.6164 18.9198C13.9649 20.0768 14.4236 21.281 14.9923 22.5148C14.4297 23.7426 13.9772 24.941 13.6347 26.0921C13.0294 25.9091 12.4545 25.7084 11.9225 25.49ZM15.2124 33.9255C14.3808 33.4651 14.02 31.7119 14.3013 29.4569C14.3685 28.902 14.4786 28.3176 14.6131 27.7213C15.8117 28.0047 17.1203 28.2231 18.4961 28.3648C19.3216 29.4569 20.1777 30.4486 21.04 31.3164C19.0465 33.105 17.1753 34.0849 15.9034 34.0849C15.6282 34.079 15.3958 34.0259 15.2124 33.9255ZM29.7171 29.4274C30.0045 31.6824 29.6498 33.4356 28.8243 33.9019C28.6408 34.0082 28.4024 34.0554 28.1211 34.0554C26.8553 34.0554 24.978 33.0814 22.9845 31.3046C23.8406 30.4368 24.6967 29.451 25.51 28.3589C26.892 28.2172 28.2006 27.9988 29.3991 27.7095C29.5397 28.3058 29.6498 28.8784 29.7171 29.4274ZM32.0713 25.49C31.5455 25.7084 30.9706 25.9032 30.3775 26.0862C30.0289 24.9292 29.5703 23.7249 29.0016 22.4912C29.5642 21.2633 30.0167 20.065 30.3592 18.9139C30.9645 19.0969 31.5393 19.2976 32.0775 19.516C34.2422 20.4074 35.6425 21.5762 35.6425 22.503C35.6364 23.4298 34.236 24.6045 32.0713 25.49Z"></path>
<path fill="#61DAFB" d="M21.994 25.2008C23.5374 25.2008 24.7885 23.9929 24.7885 22.503C24.7885 21.0131 23.5374 19.8053 21.994 19.8053C20.4506 19.8053 19.1995 21.0131 19.1995 22.503C19.1995 23.9929 20.4506 25.2008 21.994 25.2008Z"></path>
</svg>
