<svg xmlns="http://www.w3.org/2000/svg" fill="none" viewBox="0 0 44 44" height="44" width="44">
<rect fill-opacity="0.9" fill="black" rx="22" height="44" width="44"></rect>
<g clip-path="url(#clip0_215_6)">
<path fill="url(#paint0_linear_215_6)" d="M24.5371 36.5015C23.7707 37.4667 22.2167 36.9379 22.1983 35.7055L21.9282 17.6809H34.0479C36.2432 17.6809 37.4675 20.2164 36.1024 21.9356L24.5371 36.5015Z"></path>
<path fill-opacity="0.2" fill="url(#paint1_linear_215_6)" d="M24.5371 36.5015C23.7707 37.4667 22.2167 36.9379 22.1983 35.7055L21.9282 17.6809H34.0479C36.2432 17.6809 37.4675 20.2164 36.1024 21.9356L24.5371 36.5015Z"></path>
<path fill="#3ECF8E" d="M19.6079 7.49847C20.3743 6.53323 21.9283 7.06212 21.9468 8.29448L22.0651 26.3191H10.0971C7.90179 26.3191 6.67745 23.7836 8.04254 22.0643L19.6079 7.49847Z"></path>
</g>
<defs>
<linearGradient gradientUnits="userSpaceOnUse" y2="26.195" x2="32.6998" y1="21.6774" x1="21.9282" id="paint0_linear_215_6">
<stop stop-color="#249361"></stop>
<stop stop-color="#3ECF8E" offset="1"></stop>
</linearGradient>
<linearGradient gradientUnits="userSpaceOnUse" y2="24.3862" x2="22.0651" y1="15.1388" x1="17.1527" id="paint1_linear_215_6">
<stop></stop>
<stop stop-opacity="0" offset="1"></stop>
</linearGradient>
<clipPath id="clip0_215_6">
<rect transform="translate(7 7)" fill="white" height="30" width="30"></rect>
</clipPath>
</defs>
</svg>
