<svg width="44" height="44" viewBox="0 0 44 44" fill="none" xmlns="http://www.w3.org/2000/svg">
<rect width="44" height="44" rx="22" fill="black" fill-opacity="0.9"/>
<path d="M21.9998 13.6024C18.7395 13.6024 16.5473 15.0251 15.4221 17.8712C15.3054 18.1658 15.6653 18.4079 15.8981 18.1926C17.0852 17.0948 18.4193 16.7314 19.8998 17.1012C20.9649 17.3672 21.7262 18.1401 22.5691 18.9953C23.9411 20.3877 25.5295 22 28.9998 22C32.26 22 34.4528 20.5767 35.5774 17.7306C35.6941 17.436 35.3342 17.1939 35.1014 17.4092C33.9143 18.507 32.5803 18.871 31.0998 18.5012C30.0352 18.2352 29.2739 17.4623 28.431 16.6071C27.0584 15.2141 25.4694 13.6024 21.9998 13.6024ZM14.9998 22C11.7395 22 9.54676 23.4234 8.42209 26.2694C8.30543 26.564 8.66534 26.8061 8.89809 26.5909C10.0852 25.493 11.4193 25.129 12.8998 25.4994C13.9643 25.766 14.7256 26.5384 15.5685 27.3929C16.9411 28.7859 18.5301 30.3983 21.9998 30.3983C25.26 30.3983 27.4528 28.9749 28.5774 26.1289C28.6941 25.8343 28.3342 25.5922 28.1014 25.8074C26.9143 26.9053 25.5803 27.2693 24.0998 26.8989C23.0346 26.6329 22.2733 25.8599 21.4304 25.0054C20.0584 23.6124 18.47 22 14.9998 22Z" fill="url(#paint0_linear_186_71)"/>
<defs>
<linearGradient id="paint0_linear_186_71" x1="20.752" y1="12.8049" x2="22.9932" y2="29.322" gradientUnits="userSpaceOnUse">
<stop stop-color="#00C1E0"/>
<stop offset="1" stop-color="#009BB8"/>
</linearGradient>
</defs>
</svg>
