<svg width="44" height="44" viewBox="0 0 44 44" fill="none" xmlns="http://www.w3.org/2000/svg">
<rect width="44" height="44" rx="22" fill="black" fill-opacity="0.9"/>
<g clip-path="url(#clip0_186_49)">
<path d="M11 22V11H33V33H11" fill="#007ACC"/>
<path d="M15.8237 22.0385V22.935H18.6837V31.075H20.7132V22.935H23.5732V22.055C23.5732 21.56 23.5732 21.1585 23.5512 21.1475C23.5512 21.131 21.8077 21.1255 19.6902 21.1255L15.8402 21.142V22.044L15.8237 22.0385ZM28.6772 21.12C29.2382 21.252 29.6672 21.505 30.0522 21.9065C30.2557 22.1265 30.5582 22.5115 30.5802 22.6105C30.5802 22.6435 29.6287 23.287 29.0512 23.6445C29.0292 23.661 28.9412 23.5675 28.8532 23.4245C28.5672 23.0175 28.2757 22.8415 27.8192 22.8085C27.1592 22.7645 26.7192 23.111 26.7192 23.6885C26.7192 23.8645 26.7522 23.9635 26.8182 24.1065C26.9667 24.409 27.2417 24.5905 28.0942 24.9645C29.6672 25.641 30.3492 26.0865 30.7617 26.7245C31.2292 27.4395 31.3337 28.5615 31.0202 29.403C30.6682 30.3215 29.8102 30.943 28.5837 31.1465C28.1987 31.2125 27.3187 31.2015 26.9062 31.13C26.0262 30.965 25.1847 30.525 24.6677 29.9585C24.4642 29.7385 24.0737 29.15 24.0957 29.1115L24.3047 28.9795L25.1297 28.501L25.7512 28.138L25.8942 28.3305C26.0757 28.6165 26.4827 29.0015 26.7192 29.1335C27.4342 29.502 28.3912 29.4525 28.8642 29.0235C29.0677 28.8365 29.1557 28.6385 29.1557 28.3635C29.1557 28.1105 29.1172 27.995 28.9907 27.8025C28.8147 27.5605 28.4627 27.3625 27.4727 26.9225C26.3342 26.4385 25.8502 26.1305 25.3992 25.6575C25.1407 25.3715 24.9042 24.926 24.7942 24.5575C24.7117 24.2385 24.6842 23.4575 24.7612 23.144C24.9977 22.044 25.8282 21.274 27.0162 21.054C27.4012 20.977 28.3087 21.01 28.6882 21.109L28.6772 21.12Z" fill="white"/>
</g>
<defs>
<clipPath id="clip0_186_49">
<rect width="22" height="22" fill="white" transform="translate(11 11)"/>
</clipPath>
</defs>
</svg>
