<svg width="44" height="44" viewBox="0 0 44 44" fill="none" xmlns="http://www.w3.org/2000/svg">
<rect width="44" height="44" rx="22" fill="black" fill-opacity="0.9"/>
<g clip-path="url(#clip0_186_22)">
<path d="M12.0096 33.1716L10 9.04529L34 9.09377L31.875 33.1716L22.0906 35.9547L12.0096 33.1716Z" fill="#1B73BA"/>
<path d="M22.0906 33.6246V11.343L31.9739 11.3753L30.2115 31.3107L22.0906 33.6246Z" fill="#1C88C7"/>
<path d="M29.5195 14.191H14.3157L14.7275 17.1035H21.9423L14.8429 20.0971L15.2546 22.9126H25.7145L25.3355 26.8445L21.794 27.5243L18.5821 26.7152L18.3349 24.4821H15.3864L15.7816 29.1263L22.107 30.8577L28.1689 28.9645L28.9431 19.8866H22.5351L29.5193 17.0388L29.5195 14.191Z" fill="white"/>
</g>
<defs>
<clipPath id="clip0_186_22">
<rect width="24" height="27" fill="white" transform="translate(10 9)"/>
</clipPath>
</defs>
</svg>
