<svg width="44" height="44" viewBox="0 0 44 44" fill="none" xmlns="http://www.w3.org/2000/svg">
<rect width="44" height="44" rx="22" fill="#251C31"/>
<path d="M36.9493 12.625H34.6937L29.4999 20.3744L24.3062 12.625H22.0505L28.3712 22.0581L22.1293 31.375H24.3849L29.4999 23.7419L34.6149 31.375H36.8705L30.6287 22.0581L36.9493 12.625Z" fill="#66798F"/>
<path d="M19.7688 25.75C19.7594 25.7744 19.7575 25.8006 19.7481 25.8231C18.9137 28.0225 16.8044 29.5 14.4381 29.5C11.3706 29.5 8.875 26.9462 8.875 23.8075V22H17.1981H22V20.125H21.9944C21.9588 15.985 18.6419 12.625 14.4381 12.625C10.3356 12.625 7 16.0206 7 20.1925V23.8094C7 27.9812 10.3356 31.375 14.5 31.375C17.5825 31.375 20.395 29.41 21.5013 26.4869C21.5931 26.2469 21.6437 25.9956 21.7094 25.75H19.7688ZM14.5619 14.5C17.6069 14.5 20.0819 17.0181 20.1175 20.125H8.88063C8.91625 17.0181 11.3931 14.5 14.5619 14.5Z" fill="#66798F"/>
</svg>
