<svg width="44" height="44" viewBox="0 0 44 44" fill="none" xmlns="http://www.w3.org/2000/svg">
<rect width="44" height="44" rx="22" fill="black" fill-opacity="0.9"/>
<g clip-path="url(#clip0_186_60)">
<path d="M34.5097 20.8419L23.1578 9.49062C22.5045 8.83687 21.4441 8.83687 20.79 9.49062L18.4327 11.8479L21.423 14.8382C22.1179 14.6034 22.9148 14.7609 23.4687 15.3148C24.0253 15.8723 24.1817 16.676 23.9412 17.3731L26.823 20.255C27.5202 20.0148 28.3247 20.1702 28.8816 20.728C29.6598 21.506 29.6598 22.7669 28.8816 23.5454C28.1031 24.3239 26.8422 24.3239 26.0633 23.5454C25.4779 22.9593 25.3333 22.0996 25.6296 21.3784L22.9421 18.6909L22.9418 25.7634C23.1366 25.8597 23.3146 25.987 23.4687 26.1402C24.247 26.9181 24.247 28.1791 23.4687 28.9582C22.6902 29.7364 21.4287 29.7364 20.6514 28.9582C19.8731 28.1791 19.8731 26.9182 20.6514 26.1403C20.8379 25.9537 21.0595 25.8059 21.3035 25.7055V18.5671C21.0592 18.4673 20.8374 18.3195 20.6514 18.1323C20.0617 17.5434 19.9199 16.6782 20.222 15.9542L17.2743 13.0061L9.49055 20.7894C8.83648 21.4437 8.83648 22.5041 9.49055 23.158L20.8426 34.5094C21.4961 35.1633 22.5563 35.1633 23.2106 34.5094L34.5096 23.2107C35.1634 22.5566 35.1635 21.4956 34.5097 20.8419Z" fill="#DE4C36"/>
</g>
<defs>
<clipPath id="clip0_186_60">
<rect width="26" height="26" fill="white" transform="translate(9 9)"/>
</clipPath>
</defs>
</svg>
