<svg width="44" height="44" viewBox="0 0 44 44" fill="none" xmlns="http://www.w3.org/2000/svg">
<rect width="44" height="44" rx="22" fill="#251C31"/>
<g clip-path="url(#clip0_124_149)">
<path d="M11 11H33V33H11V11Z" fill="#F0DB4F"/>
<path d="M31.1993 27.753C31.0383 26.7492 30.3837 25.9064 28.4452 25.1201C27.7718 24.8106 27.021 24.589 26.7972 24.0787C26.7178 23.7817 26.7073 23.6144 26.7575 23.4346C26.9018 22.8511 27.5982 22.6692 28.1503 22.8365C28.5058 22.9557 28.8425 23.2297 29.0453 23.6667C29.9948 23.0519 29.9927 23.0561 30.6556 22.6337C30.413 22.2572 30.2834 22.0836 30.1244 21.9226C29.5535 21.2848 28.7756 20.9565 27.5313 20.9816C27.3159 21.0087 27.0984 21.038 26.883 21.0652C26.2619 21.2221 25.6701 21.5483 25.3229 21.9854C24.2815 23.1669 24.5784 25.2352 25.8457 26.0863C27.0942 27.0232 28.9282 27.2365 29.1625 28.1127C29.3904 29.1856 28.3741 29.5327 27.364 29.4093C26.6195 29.2546 26.2054 28.876 25.7579 28.188C24.934 28.6648 24.934 28.6648 24.087 29.1521C24.2878 29.5913 24.499 29.7899 24.8357 30.1705C26.4292 31.7871 30.4172 31.7076 31.1324 29.2608C31.1617 29.1772 31.3541 28.6167 31.1993 27.753ZM22.9598 21.1112H20.902C20.902 22.8888 20.8937 24.6538 20.8937 26.4314C20.8937 27.5627 20.9522 28.6 20.7682 28.9179C20.467 29.5431 19.687 29.4658 19.3315 29.3444C18.9697 29.1667 18.7857 28.9137 18.5724 28.5561C18.5138 28.4536 18.4699 28.3741 18.4552 28.3679C17.8969 28.7087 17.3406 29.0517 16.7822 29.3926C17.0604 29.9635 17.4702 30.4591 17.9952 30.7811C18.7794 31.2517 19.8334 31.396 20.9355 31.1429C21.6528 30.9338 22.2718 30.5009 22.5959 29.8422C23.0644 28.9785 22.964 27.9329 22.9598 26.7764C22.9702 24.8901 22.9598 23.0038 22.9598 21.1112Z" fill="#323330"/>
</g>
<defs>
<clipPath id="clip0_124_149">
<rect width="22" height="22" fill="white" transform="translate(11 11)"/>
</clipPath>
</defs>
</svg>
