<svg width="44" height="44" viewBox="0 0 44 44" fill="none" xmlns="http://www.w3.org/2000/svg">
<rect width="44" height="44" rx="22" fill="#251C31"/>
<g clip-path="url(#clip0_124_87)">
<path d="M21.9836 36.9203C30.2356 36.9203 36.925 30.2308 36.925 21.9789C36.925 13.727 30.2356 7.03748 21.9836 7.03748C13.7317 7.03748 7.04224 13.727 7.04224 21.9789C7.04224 30.2308 13.7317 36.9203 21.9836 36.9203Z" fill="black"/>
<path d="M31.8629 33.1883L18.521 16.0023H16.0071V27.9506H18.0182V18.5562L30.2843 34.4042C30.8369 34.0343 31.3643 33.6282 31.8629 33.1883Z" fill="url(#paint0_linear_124_87)"/>
<path fill-rule="evenodd" clip-rule="evenodd" d="M26.134 16.0023H28.1261V27.9554H26.134V16.0023Z" fill="url(#paint1_linear_124_87)"/>
</g>
<defs>
<linearGradient id="paint0_linear_124_87" x1="25.138" y1="26.3785" x2="31.0316" y2="33.6832" gradientUnits="userSpaceOnUse">
<stop stop-color="white"/>
<stop offset="1" stop-color="white" stop-opacity="0"/>
</linearGradient>
<linearGradient id="paint1_linear_124_87" x1="27.1301" y1="16.0026" x2="27.0967" y2="24.7807" gradientUnits="userSpaceOnUse">
<stop stop-color="white"/>
<stop offset="1" stop-color="white" stop-opacity="0"/>
</linearGradient>
<clipPath id="clip0_124_87">
<rect width="30" height="30" fill="white" transform="translate(7 7)"/>
</clipPath>
</defs>
</svg>
