<svg width="44" height="44" viewBox="0 0 44 44" fill="none" xmlns="http://www.w3.org/2000/svg">
<rect width="44" height="44" rx="22" fill="black" fill-opacity="0.9"/>
<g clip-path="url(#clip0_186_42)">
<path d="M21.9839 36.9203C30.2358 36.9203 36.9253 30.2308 36.9253 21.9789C36.9253 13.727 30.2358 7.03748 21.9839 7.03748C13.732 7.03748 7.04248 13.727 7.04248 21.9789C7.04248 30.2308 13.732 36.9203 21.9839 36.9203Z" fill="black"/>
<path d="M31.8631 33.1883L18.5212 16.0023H16.0073V27.9506H18.0184V18.5562L30.2846 34.4042C30.8372 34.0343 31.3645 33.6282 31.8631 33.1883Z" fill="url(#paint0_linear_186_42)"/>
<path fill-rule="evenodd" clip-rule="evenodd" d="M26.1343 16.0023H28.1263V27.9554H26.1343V16.0023Z" fill="url(#paint1_linear_186_42)"/>
</g>
<defs>
<linearGradient id="paint0_linear_186_42" x1="25.1383" y1="26.3785" x2="31.0318" y2="33.6832" gradientUnits="userSpaceOnUse">
<stop stop-color="white"/>
<stop offset="1" stop-color="white" stop-opacity="0"/>
</linearGradient>
<linearGradient id="paint1_linear_186_42" x1="27.1303" y1="16.0026" x2="27.0969" y2="24.7807" gradientUnits="userSpaceOnUse">
<stop stop-color="white"/>
<stop offset="1" stop-color="white" stop-opacity="0"/>
</linearGradient>
<clipPath id="clip0_186_42">
<rect width="30" height="30" fill="white" transform="translate(7 7)"/>
</clipPath>
</defs>
</svg>
