<svg width="44" height="42" viewBox="0 0 44 42" fill="none" xmlns="http://www.w3.org/2000/svg">
<rect width="44" height="42" rx="21" fill="black" fill-opacity="0.9"/>
<g clip-path="url(#clip0_307_24)">
<mask id="mask0_307_24" style="mask-type:alpha" maskUnits="userSpaceOnUse" x="7" y="6" width="30" height="30">
<path d="M22 36C30.2843 36 37 29.2843 37 21C37 12.7157 30.2843 6 22 6C13.7157 6 7 12.7157 7 21C7 29.2843 13.7157 36 22 36Z" fill="black"/>
</mask>
<g mask="url(#mask0_307_24)">
<path d="M22 36C30.2843 36 37 29.2843 37 21C37 12.7157 30.2843 6 22 6C13.7157 6 7 12.7157 7 21C7 29.2843 13.7157 36 22 36Z" fill="white"/>
<path d="M31.918 32.2533L18.5237 15H16V26.995H18.0189V17.5639L30.3331 33.4741C30.8888 33.1023 31.4182 32.6941 31.918 32.2533Z" fill="url(#paint0_linear_307_24)"/>
<path d="M28.1665 15H26.1665V27H28.1665V15Z" fill="url(#paint1_linear_307_24)"/>
</g>
</g>
<defs>
<linearGradient id="paint0_linear_307_24" x1="25.1666" y1="25.4166" x2="31.0833" y2="32.75" gradientUnits="userSpaceOnUse">
<stop/>
<stop offset="1" stop-opacity="0"/>
</linearGradient>
<linearGradient id="paint1_linear_307_24" x1="27.1665" y1="15" x2="27.133" y2="23.8125" gradientUnits="userSpaceOnUse">
<stop/>
<stop offset="1" stop-opacity="0"/>
</linearGradient>
<clipPath id="clip0_307_24">
<rect width="30" height="30" fill="white" transform="translate(7 6)"/>
</clipPath>
</defs>
</svg>
