<svg width="44" height="44" viewBox="0 0 44 44" fill="none" xmlns="http://www.w3.org/2000/svg">
<rect width="44" height="44" rx="22" fill="black" fill-opacity="0.9"/>
<path d="M22.0009 35.7308C21.6054 35.731 21.2169 35.6303 20.8743 35.439L17.2893 33.3853C16.7542 33.0955 17.0149 32.9932 17.1919 32.9334C17.7609 32.7633 18.3058 32.525 18.8137 32.2242C18.8563 32.2051 18.9031 32.1969 18.9498 32.2003C18.9965 32.2037 19.0416 32.2185 19.0807 32.2434L21.8355 33.827C21.8868 33.8533 21.9439 33.867 22.002 33.867C22.06 33.867 22.1172 33.8533 22.1684 33.827L32.911 27.8269C32.9613 27.7978 33.0029 27.7565 33.0317 27.7071C33.0605 27.6577 33.0756 27.602 33.0754 27.5452V15.543C33.0755 15.4854 33.0602 15.4287 33.031 15.3785C33.0019 15.3283 32.9598 15.2862 32.909 15.2562L22.1664 9.26116C22.1157 9.23355 22.0585 9.21905 22.0004 9.21905C21.9423 9.21905 21.8851 9.23355 21.8344 9.26116L11.0981 15.2583C11.0469 15.2876 11.0044 15.3292 10.9747 15.379C10.945 15.4289 10.9291 15.4854 10.9285 15.543V27.5402C10.9287 27.5968 10.9443 27.6523 10.974 27.7011C11.0036 27.7499 11.0461 27.7901 11.0971 27.8178L14.0434 29.4632C15.6402 30.2353 16.6181 29.3254 16.6181 28.4115V16.5663C16.6181 16.5264 16.6262 16.4868 16.642 16.45C16.6578 16.4131 16.6809 16.3796 16.7101 16.3514C16.7393 16.3231 16.7739 16.3007 16.812 16.2855C16.8501 16.2702 16.891 16.2623 16.9322 16.2623H18.2934C18.3767 16.2623 18.4566 16.2944 18.5155 16.3514C18.5744 16.4084 18.6075 16.4857 18.6075 16.5663V28.4125C18.6075 30.4744 17.4474 31.6548 15.4266 31.6548C14.5548 31.6695 13.6967 31.4439 12.9524 31.0043L10.1286 29.4369C9.78576 29.2437 9.50131 28.9669 9.30362 28.6341C9.10593 28.3012 9.00192 27.9241 9.00196 27.5402V15.543C9.00094 15.1585 9.10452 14.7805 9.30228 14.447C9.50004 14.1136 9.78501 13.8363 10.1286 13.6432L20.8722 7.64106C21.2183 7.45785 21.6064 7.36182 22.0009 7.36182C22.3954 7.36182 22.7836 7.45785 23.1296 7.64106L33.8722 13.6432C34.215 13.836 34.4995 14.1125 34.6974 14.4449C34.8953 14.7774 34.9996 15.1542 34.9999 15.5379V27.5402C34.9993 27.9241 34.8949 28.3011 34.6971 28.6338C34.4993 28.9666 34.2149 29.2434 33.8722 29.4369L23.1296 35.439C22.7864 35.6306 22.3971 35.7313 22.0009 35.7308Z" fill="#00D486"/>
<path d="M19.9634 23.5249C19.9634 23.4443 19.9965 23.367 20.0554 23.31C20.1143 23.253 20.1942 23.2209 20.2775 23.2209H21.6669C21.7411 23.2212 21.8129 23.2468 21.8694 23.2934C21.926 23.34 21.9637 23.4044 21.9758 23.4753C22.1852 24.8441 22.8134 25.5341 25.654 25.5341C27.9167 25.5341 28.881 25.0386 28.881 23.8765C28.881 23.2068 28.6077 22.7093 25.0907 22.3759C22.1506 22.0943 20.333 21.4641 20.333 19.1905C20.333 17.0932 22.1601 15.8419 25.2226 15.8419C28.6643 15.8419 30.3678 16.9979 30.5835 19.4782C30.5868 19.5196 30.5813 19.5612 30.5673 19.6005C30.5533 19.6398 30.5312 19.6759 30.5022 19.7065C30.4733 19.7372 30.4382 19.7618 30.399 19.7788C30.3599 19.7958 30.3175 19.8049 30.2746 19.8055H28.8758C28.8056 19.8045 28.7378 19.7809 28.6831 19.7383C28.6284 19.6956 28.5901 19.6366 28.5742 19.5704C28.2402 18.1307 27.4225 17.6707 25.2237 17.6707C22.7527 17.6707 22.4658 18.5035 22.4658 19.1276C22.4658 19.8835 22.805 20.1044 26.1409 20.5309C29.4422 20.9534 31.0107 21.5512 31.0107 23.7964C31.0107 26.0619 29.059 27.3588 25.6551 27.3588C20.9486 27.3649 19.9634 25.2767 19.9634 23.5249Z" fill="#00D486"/>
</svg>
