<svg width="30" height="30" viewBox="0 0 30 30" fill="none" xmlns="http://www.w3.org/2000/svg">
<path d="M21.9863 21.5887C22.1703 20.0575 22.1152 19.8328 23.2557 20.081L23.5452 20.1063C24.4222 20.1461 25.5695 19.9652 26.2435 19.6521C27.6945 18.9787 28.5547 17.8549 27.1243 18.15C23.8609 18.8233 23.6366 17.7183 23.6366 17.7183C27.0826 12.6054 28.5231 6.11482 27.2795 4.52599C23.8881 0.192628 18.0177 2.24177 17.9195 2.29474L17.8881 2.3006C17.2433 2.16677 16.5216 2.08685 15.7109 2.07372C14.2341 2.04935 13.1136 2.46091 12.2635 3.10544C12.2635 3.10544 1.79094 -1.20917 2.27821 8.53146C2.3818 10.6036 5.24821 24.2107 8.66727 20.1007C9.91696 18.5979 11.1245 17.3271 11.1245 17.3271C11.724 17.7253 12.4421 17.9287 13.1949 17.8556L13.2533 17.8059C13.235 17.9925 13.243 18.1751 13.2765 18.3911C12.3959 19.3753 12.6547 19.548 10.8938 19.9104C9.11212 20.2774 10.1588 20.9311 10.842 21.1019C11.6706 21.3091 13.587 21.6025 14.8822 19.7899L14.8306 19.9966C15.1761 20.2732 15.1529 21.9834 15.2016 23.2052C15.2506 24.4272 15.3324 25.5675 15.5816 26.2399C15.8307 26.9121 16.1246 28.6436 18.4388 28.1477C20.3729 27.7343 21.8516 27.1378 21.9863 21.5887Z" fill="black"/>
<path d="M17.6857 29.3569C16.6621 29.3569 15.9956 28.961 15.5908 28.5787C14.9798 28.0022 14.7375 27.2594 14.5926 26.8158L14.53 26.6306C14.2385 25.8436 14.1396 24.7104 14.081 23.2512C14.0721 23.032 14.066 22.8063 14.0592 22.567C14.0543 22.3919 14.0482 22.1723 14.0393 21.9426C13.6705 22.1185 13.2791 22.2421 12.8763 22.3101C12.1546 22.4334 11.3789 22.3936 10.57 22.1913C9.99933 22.0486 9.40637 21.7528 9.0684 21.296C8.08332 22.1587 7.14371 22.0418 6.63183 21.8709C5.72879 21.5698 4.92066 20.7234 4.16105 19.2841C3.61988 18.2587 3.09652 16.9228 2.60527 15.3131C1.7498 12.51 1.20629 9.55757 1.15801 8.58819C1.00613 5.55421 1.82293 3.38436 3.58519 2.1396C6.36512 0.176002 10.5771 1.33077 12.1127 1.85506C13.1444 1.23327 14.3582 0.93069 15.7298 0.952487C16.4664 0.96444 17.1679 1.02913 17.8195 1.14538C18.4992 0.931627 19.8417 0.62483 21.3785 0.644049C24.21 0.677799 26.5563 1.78124 28.1634 3.83507C29.3104 5.30038 28.7432 8.37749 28.3033 10.0814C27.6841 12.4781 26.5992 15.0272 25.2665 17.2462C25.6284 17.2488 26.1527 17.2055 26.898 17.0515C28.3685 16.748 28.7986 17.5364 28.9153 17.8894C29.3829 19.3055 27.3504 20.3756 26.7164 20.67C25.904 21.0471 24.5796 21.2768 23.4949 21.2271L23.4475 21.2241L23.1625 21.199L23.1344 21.4366L23.1072 21.6689C23.0343 24.4812 22.6326 26.2622 21.806 27.439C20.9395 28.6727 19.7353 29.0184 18.6745 29.2458C18.3126 29.3231 17.9838 29.3569 17.6857 29.3569ZM15.5318 19.1215C16.1925 19.6502 16.2504 20.6451 16.3021 22.5044C16.3087 22.7365 16.3148 22.9561 16.323 23.1612C16.3478 23.7823 16.4062 25.2365 16.634 25.8511C16.6661 25.938 16.695 26.0262 16.7254 26.1197C16.9793 26.8969 17.1065 27.2866 18.2041 27.052C19.1254 26.8544 19.5991 26.6773 19.9699 26.1494C20.5087 25.3821 20.8101 23.8385 20.8654 21.5616L21.9864 21.5887L20.8732 21.4551L20.906 21.1772C21.0126 20.2608 21.0895 19.5989 21.7019 19.1611C22.1934 18.81 22.7533 18.844 23.1993 18.9244C22.7093 18.5541 22.5738 18.1198 22.5377 17.9416L22.4442 17.4811L22.7069 17.0913C24.2203 14.846 25.4681 12.0865 26.1309 9.52006C26.812 6.88311 26.6043 5.48272 26.3967 5.21788C23.6477 1.7053 18.8807 3.15561 18.3829 3.32014L18.2988 3.36561L17.8769 3.44413L17.6608 3.39936C17.065 3.27561 16.4032 3.20717 15.6937 3.19569C14.579 3.17694 13.6797 3.44038 12.9424 3.99983L12.4307 4.38772L11.8371 4.14327C10.5686 3.6246 6.84301 2.58186 4.87707 3.97428C3.78582 4.74725 3.28871 6.26178 3.39933 8.47592C3.4359 9.20694 3.93254 11.9742 4.75191 14.658C5.88418 18.367 6.91308 19.5991 7.34269 19.7423C7.41769 19.7676 7.61223 19.6165 7.80582 19.384C8.61301 18.4163 9.44885 17.4729 10.3122 16.5551L10.9614 15.8719L11.7464 16.3933C12.0628 16.6036 12.4118 16.7229 12.7701 16.7454L14.6421 15.1488L14.3709 17.9163C14.3648 17.9784 14.3618 18.063 14.3861 18.2201L14.4677 18.7446L14.1138 19.1402L14.073 19.1862L15.1014 19.6608L15.5318 19.1215Z" fill="black"/>
<path d="M27.1245 18.15C23.8608 18.8233 23.6365 17.7183 23.6365 17.7183C27.0825 12.6051 28.523 6.11435 27.2799 4.52599C23.8885 0.192868 18.0176 2.24201 17.9197 2.29521L17.888 2.30084C17.2433 2.16701 16.5216 2.08732 15.7104 2.0742C14.2336 2.05006 13.1136 2.46138 12.2635 3.10591C12.2635 3.10591 1.79067 -1.20846 2.27771 8.53193C2.3813 10.6043 5.24771 24.2114 8.66677 20.1014C9.91646 18.5986 11.1237 17.3278 11.1237 17.3278C11.7235 17.726 12.4414 17.9294 13.194 17.8563L13.2525 17.8066C13.2343 17.9932 13.2427 18.1758 13.276 18.3919C12.3952 19.376 12.654 19.5487 10.8931 19.9111C9.11138 20.2781 10.1581 20.9318 10.8415 21.1026C11.6698 21.3098 13.5865 21.6033 14.8815 19.7906L14.8297 19.9973C15.1749 20.2739 15.4172 21.7954 15.3767 23.1747C15.3359 24.554 15.3087 25.5011 15.5808 26.2408C15.8527 26.9805 16.1236 28.6446 18.4383 28.1486C20.3724 27.7343 21.3746 26.6601 21.5143 24.8686C21.6132 23.5947 21.837 23.7832 21.8513 22.6444L22.0311 22.1053C22.2383 20.3787 22.0639 19.8218 23.2557 20.0808L23.5451 20.1061C24.4222 20.1459 25.5699 19.965 26.2437 19.6519C27.6945 18.979 28.5549 17.8549 27.1245 18.15Z" fill="#336791"/>
<path d="M17.8024 28.6657C15.8731 28.6657 15.2618 27.1378 15.0117 26.513C14.6456 25.5973 14.5666 22.0437 14.6482 19.1294C14.6494 19.0803 14.6603 19.0319 14.6804 18.987C14.7004 18.9421 14.7291 18.9016 14.7648 18.8678C14.8005 18.834 14.8426 18.8077 14.8885 18.7902C14.9345 18.7728 14.9834 18.7646 15.0326 18.7662C15.0817 18.7675 15.13 18.7785 15.1748 18.7985C15.2197 18.8186 15.2601 18.8472 15.2939 18.8829C15.3276 18.9186 15.354 18.9606 15.3715 19.0065C15.389 19.0523 15.3973 19.1012 15.3959 19.1503C15.3019 22.5115 15.4352 25.5574 15.7062 26.2352C16.129 27.292 16.7702 28.2164 18.5831 27.828C20.3041 27.4589 20.9487 26.8064 21.2358 25.1421C21.4561 23.865 21.8918 20.2317 21.9455 19.5148C21.9491 19.4658 21.9623 19.4179 21.9844 19.3741C22.0065 19.3302 22.037 19.2911 22.0743 19.2591C22.1115 19.227 22.1547 19.2026 22.2014 19.1873C22.248 19.172 22.2973 19.166 22.3463 19.1698C22.4451 19.1772 22.537 19.2236 22.6016 19.2988C22.6663 19.3739 22.6986 19.4717 22.6913 19.5705C22.6352 20.317 22.2016 23.9433 21.9729 25.2694C21.634 27.2351 20.7577 28.1266 18.7399 28.5593C18.397 28.6326 18.0856 28.6655 17.8024 28.6657ZM7.34087 21.203C7.17222 21.2024 7.00477 21.1747 6.84493 21.1209C5.59173 20.7028 4.39805 18.6619 3.29696 15.0541C2.45883 12.308 1.92774 9.44155 1.8811 8.50991C1.74305 5.74803 2.45415 3.79405 3.99516 2.70256C7.04368 0.542563 12.172 2.59944 12.3888 2.68803C12.4807 2.72554 12.5539 2.79801 12.5923 2.88947C12.6307 2.98094 12.6312 3.08392 12.5937 3.17577C12.5562 3.26761 12.4837 3.34078 12.3922 3.3792C12.3008 3.41762 12.1978 3.41812 12.1059 3.38061C12.0565 3.36045 7.13883 1.3903 4.42594 3.31381C3.10829 4.24803 2.50337 5.98381 2.62782 8.47264C2.66696 9.25756 3.16313 12.0551 4.01204 14.8357C4.99501 18.0565 6.11368 20.0887 7.08141 20.4115C7.23329 20.4621 7.69548 20.6161 8.35618 19.8215C9.12667 18.8962 9.92605 17.9953 10.7531 17.1201C10.8223 17.0511 10.9158 17.0119 11.0136 17.0109C11.1113 17.01 11.2055 17.0473 11.2761 17.1149C11.3467 17.1825 11.388 17.2751 11.3912 17.3728C11.3943 17.4705 11.3592 17.5656 11.2931 17.6376C11.2819 17.6494 10.1571 18.8252 8.93133 20.2999C8.35079 20.9981 7.79438 21.203 7.34087 21.203ZM23.6133 18.0518C23.5455 18.0517 23.479 18.0332 23.4209 17.9982C23.3628 17.9633 23.3153 17.9132 23.2835 17.8533C23.2517 17.7934 23.2367 17.726 23.2402 17.6583C23.2437 17.5906 23.2656 17.5251 23.3034 17.4689C26.787 12.2997 28.0097 6.05389 26.9625 4.71561C25.6444 3.03139 23.7832 2.15178 21.4303 2.10092C19.6882 2.06342 18.3035 2.50827 18.0771 2.58584L18.0202 2.60905C17.7926 2.68053 17.618 2.55584 17.5521 2.41006C17.5146 2.32654 17.5089 2.23216 17.5361 2.14473C17.5634 2.0573 17.6217 1.98286 17.7 1.93545C17.7108 1.92913 17.745 1.91459 17.8006 1.8942C18.1852 1.75334 19.5909 1.33147 21.3321 1.35139C23.9356 1.37905 26.0862 2.38287 27.551 4.25483C28.2441 5.14053 28.2457 7.181 27.5555 9.85334C26.8519 12.578 25.5279 15.506 23.9234 17.887C23.8516 17.9941 23.7335 18.0518 23.6133 18.0518ZM23.7914 20.4448C23.1966 20.4448 22.6634 20.3608 22.3441 20.1696C22.016 19.973 21.9534 19.7058 21.9452 19.564C21.8557 17.9913 22.7234 17.7176 23.1659 17.5926C23.1042 17.4994 23.0166 17.3897 22.9259 17.2765C22.6678 16.954 22.3144 16.5124 22.042 15.8519C21.9994 15.7488 21.8658 15.509 21.7111 15.2313C20.8723 13.7271 19.1269 10.597 20.2481 8.99412C20.767 8.25233 21.8004 7.9603 23.3229 8.12319C22.875 6.75866 20.7422 2.49022 15.6813 2.40725C14.1593 2.38194 12.911 2.84998 11.9731 3.79709C9.87305 5.91795 9.94899 9.75537 9.95016 9.79381C9.95145 9.8429 9.94307 9.89177 9.92547 9.93762C9.90788 9.98347 9.88143 10.0254 9.84763 10.061C9.81383 10.0967 9.77335 10.1253 9.72849 10.1453C9.68363 10.1652 9.63527 10.1762 9.58618 10.1775C9.53709 10.1788 9.48822 10.1704 9.44237 10.1528C9.39652 10.1352 9.35459 10.1088 9.31896 10.075C9.28333 10.0412 9.25471 10.0007 9.23473 9.95581C9.21475 9.91095 9.2038 9.86259 9.20251 9.8135C9.19782 9.64311 9.11954 5.61608 11.4417 3.27069C12.5285 2.17311 13.9591 1.63123 15.6938 1.65959C18.9314 1.7128 21.0155 3.35881 22.1934 4.73014C23.4776 6.22475 24.1071 7.87334 24.1589 8.42366C24.1976 8.83288 23.9039 8.91467 23.8446 8.92686L23.7096 8.92991C22.2155 8.69061 21.2569 8.85678 20.8606 9.42303C20.0077 10.642 21.6588 13.6029 22.3638 14.8673C22.5438 15.1898 22.6737 15.423 22.7332 15.5669C22.9648 16.1285 23.2669 16.5058 23.5095 16.8091C23.723 17.0758 23.9079 17.3072 23.974 17.5786C24.0047 17.6325 24.4404 18.277 27.0258 17.7433C27.6738 17.6098 28.0624 17.7239 28.1813 18.0832C28.4149 18.7898 27.1038 19.6141 26.378 19.9512C25.7276 20.2535 24.6895 20.4448 23.7914 20.4448ZM22.6908 19.5023C22.7728 19.5851 23.1832 19.7278 24.0331 19.6912C24.7887 19.6589 25.5856 19.4946 26.0637 19.2726C26.6752 18.9886 27.0834 18.671 27.2949 18.4542L27.1777 18.4758C25.5246 18.817 24.3553 18.7715 23.7023 18.3405C23.6585 18.3115 23.6162 18.2802 23.5758 18.2465C23.505 18.2744 23.4396 18.2927 23.393 18.3058C23.0227 18.4097 22.6397 18.5173 22.6908 19.5023ZM12.0122 21.5918C11.6016 21.5918 11.1694 21.5358 10.7281 21.4254C10.2708 21.311 9.49993 20.9667 9.51165 20.4012C9.52501 19.7667 10.4477 19.5764 10.7951 19.5049C12.0499 19.2464 12.1317 19.1428 12.5238 18.6448C12.6382 18.4997 12.7805 18.319 12.9745 18.1024C13.2626 17.7799 13.5773 17.6165 13.9102 17.6165C14.142 17.6165 14.332 17.6951 14.4577 17.7473C14.858 17.9133 15.192 18.3145 15.3293 18.7943C15.4533 19.2272 15.394 19.6439 15.1629 19.9676C14.4042 21.03 13.3146 21.5918 12.0122 21.5918ZM10.3195 20.4333C10.4323 20.5205 10.6582 20.6369 10.9097 20.6998C11.292 20.7954 11.6627 20.8439 12.0124 20.8439C13.0779 20.8439 13.9334 20.4028 14.5547 19.5328C14.6843 19.3514 14.6454 19.121 14.6107 18.9998C14.5381 18.746 14.3576 18.5151 14.1717 18.438C14.0709 18.3963 13.9873 18.3644 13.9104 18.3644C13.8691 18.3644 13.7435 18.3644 13.5321 18.6009C13.3862 18.765 13.246 18.934 13.1116 19.1076C12.6232 19.7278 12.3994 19.9383 10.9463 20.2376C10.5916 20.3102 10.4098 20.3843 10.3195 20.4333ZM13.1951 18.7083C13.1058 18.7081 13.0195 18.6761 12.9518 18.6179C12.8841 18.5597 12.8395 18.4792 12.8259 18.3909C12.8166 18.3288 12.8104 18.2663 12.8072 18.2037C11.8547 18.1858 10.9357 17.7771 10.238 17.0491C9.35579 16.1287 8.9543 14.8535 9.13665 13.5506C9.33469 12.1357 9.26063 10.8867 9.22079 10.2157C9.20977 10.0291 9.2018 9.89436 9.20227 9.80108C9.20298 9.68272 9.20532 9.36889 10.2544 8.83709C10.6275 8.64795 11.3756 8.31795 12.1929 8.23334C13.5469 8.09342 14.4394 8.69647 14.7066 9.93162C15.4277 13.2663 14.7638 14.7412 14.2788 15.8184C14.1886 16.019 14.1033 16.2084 14.0351 16.3919L13.9748 16.5537C13.7187 17.2406 13.4972 17.834 13.5652 18.2773C13.5726 18.3258 13.5705 18.3753 13.5588 18.423C13.5471 18.4707 13.5261 18.5157 13.497 18.5552C13.468 18.5948 13.4314 18.6283 13.3894 18.6538C13.3474 18.6792 13.3008 18.6961 13.2523 18.7036L13.1951 18.7083ZM9.95251 9.90467L9.96704 10.1716C10.0083 10.8687 10.0852 12.1657 9.87704 13.6544C9.7268 14.729 10.0549 15.7779 10.7777 16.5316C11.3489 17.1274 12.1006 17.4562 12.8731 17.4562H12.889C12.9755 17.0918 13.1191 16.7069 13.2738 16.2923L13.3336 16.1315C13.4107 15.9244 13.5009 15.7237 13.5966 15.5114C14.0632 14.4745 14.6442 13.1838 13.9751 10.0898C13.8427 9.47694 13.5213 9.12233 12.9933 9.00537C11.9086 8.76584 10.2921 9.5817 9.95251 9.90467ZM12.2095 9.746C12.1908 9.87819 12.4516 10.2312 12.792 10.2783C13.1316 10.3258 13.4222 10.0497 13.4407 9.91756C13.4592 9.78537 13.1986 9.63959 12.8583 9.59225C12.5182 9.54491 12.2276 9.61381 12.2095 9.746ZM12.87 10.4083L12.7746 10.4018C12.5637 10.3725 12.3504 10.2396 12.2044 10.046C12.1531 9.97803 12.0694 9.84631 12.086 9.72866C12.1097 9.55616 12.3202 9.4528 12.6485 9.4528C12.7219 9.4528 12.7983 9.45819 12.8752 9.46897C13.0547 9.49381 13.2213 9.54561 13.3444 9.61428C13.5577 9.73334 13.5734 9.86623 13.5638 9.93491C13.5375 10.1255 13.2345 10.4083 12.87 10.4083ZM12.3335 9.76803C12.3441 9.84959 12.5461 10.1187 12.8091 10.155L12.8702 10.1592C13.1131 10.1592 13.2945 9.96819 13.3158 9.90561C13.2933 9.86295 13.1372 9.75702 12.8412 9.71577C12.7774 9.70662 12.7131 9.702 12.6488 9.70194C12.4584 9.70194 12.3574 9.74483 12.3335 9.76803ZM22.5534 9.47623C22.572 9.60842 22.3113 9.96139 21.9713 10.0087C21.6314 10.0561 21.3406 9.78022 21.3218 9.64803C21.304 9.51584 21.5646 9.36983 21.9045 9.32272C22.2443 9.27514 22.5347 9.34428 22.5534 9.47623ZM21.8927 10.0762C21.5656 10.0762 21.2831 9.8217 21.2599 9.65647C21.233 9.45819 21.5595 9.30748 21.8956 9.26084C21.9696 9.25053 22.043 9.24537 22.1135 9.24537C22.4037 9.24537 22.5959 9.33045 22.6151 9.4678C22.6275 9.55662 22.5593 9.69373 22.4419 9.81748C22.3643 9.89881 22.2014 10.0397 21.9795 10.0704L21.8927 10.0762ZM22.1138 9.37006C22.0491 9.37006 21.9816 9.37498 21.9131 9.38436C21.5754 9.43147 21.3738 9.56694 21.3837 9.63959C21.3949 9.71952 21.6106 9.95178 21.893 9.95178L21.9626 9.94686C22.147 9.92131 22.2856 9.80084 22.3516 9.73147C22.4555 9.62248 22.4967 9.51983 22.4918 9.48491C22.4852 9.4385 22.3606 9.37006 22.1138 9.37006ZM23.0431 17.0676C22.9753 17.0677 22.9088 17.0493 22.8507 17.0144C22.7926 16.9796 22.7451 16.9296 22.7132 16.8698C22.6813 16.81 22.6663 16.7427 22.6697 16.675C22.6732 16.6074 22.695 16.5419 22.7327 16.4857C23.5291 15.2962 23.3834 14.0833 23.2425 12.9103C23.1823 12.4106 23.1204 11.8938 23.1363 11.3979C23.1527 10.8876 23.2177 10.4667 23.2802 10.0596C23.3545 9.57725 23.4248 9.12163 23.3958 8.58069C23.3931 8.53166 23.4002 8.48259 23.4165 8.43627C23.4328 8.38996 23.4581 8.34732 23.4909 8.31078C23.5237 8.27424 23.5634 8.24451 23.6076 8.22331C23.6519 8.2021 23.7 8.18982 23.749 8.18717C23.798 8.18453 23.8471 8.19156 23.8934 8.20788C23.9397 8.2242 23.9824 8.24948 24.0189 8.28227C24.0554 8.31507 24.0852 8.35475 24.1064 8.39903C24.1276 8.44332 24.1399 8.49134 24.1425 8.54038C24.1758 9.15866 24.0963 9.67428 24.0195 10.1733C23.9602 10.5583 23.8988 10.9565 23.884 11.4218C23.8697 11.861 23.9257 12.3274 23.985 12.821C24.135 14.0683 24.3049 15.4821 23.3543 16.9017C23.3201 16.9528 23.2738 16.9947 23.2195 17.0237C23.1652 17.0526 23.1046 17.0677 23.0431 17.0676Z" fill="white"/>
</svg>
