<svg width="44" height="44" viewBox="0 0 44 44" fill="none" xmlns="http://www.w3.org/2000/svg">
<rect width="44" height="44" rx="22" fill="black" fill-opacity="0.9"/>
<path d="M28.9863 28.5887C29.1703 27.0575 29.1152 26.8328 30.2557 27.081L30.5452 27.1063C31.4222 27.1461 32.5695 26.9652 33.2435 26.6521C34.6945 25.9787 35.5547 24.8549 34.1243 25.15C30.8609 25.8233 30.6366 24.7183 30.6366 24.7183C34.0826 19.6054 35.5231 13.1148 34.2795 11.526C30.8881 7.19263 25.0177 9.24177 24.9195 9.29474L24.8881 9.3006C24.2433 9.16677 23.5216 9.08685 22.7109 9.07372C21.2341 9.04935 20.1136 9.46091 19.2635 10.1054C19.2635 10.1054 8.79094 5.79083 9.27821 15.5315C9.3818 17.6036 12.2482 31.2107 15.6673 27.1007C16.917 25.5979 18.1245 24.3271 18.1245 24.3271C18.724 24.7253 19.4421 24.9287 20.1949 24.8556L20.2533 24.8059C20.235 24.9925 20.243 25.1751 20.2765 25.3911C19.3959 26.3753 19.6547 26.548 17.8938 26.9104C16.1121 27.2774 17.1588 27.9311 17.842 28.1019C18.6706 28.3091 20.587 28.6025 21.8822 26.7899L21.8306 26.9966C22.1761 27.2732 22.1529 28.9834 22.2016 30.2052C22.2506 31.4272 22.3324 32.5675 22.5816 33.2399C22.8307 33.9121 23.1246 35.6436 25.4388 35.1477C27.3729 34.7343 28.8516 34.1378 28.9863 28.5887Z" fill="black"/>
<path d="M24.6857 36.3569C23.6621 36.3569 22.9956 35.961 22.5908 35.5787C21.9798 35.0022 21.7375 34.2594 21.5926 33.8158L21.53 33.6306C21.2385 32.8436 21.1396 31.7104 21.081 30.2512C21.0721 30.032 21.066 29.8063 21.0592 29.567C21.0543 29.3919 21.0482 29.1723 21.0393 28.9426C20.6705 29.1185 20.2791 29.2421 19.8763 29.3101C19.1546 29.4334 18.3789 29.3936 17.57 29.1913C16.9993 29.0486 16.4064 28.7528 16.0684 28.296C15.0833 29.1587 14.1437 29.0418 13.6318 28.8709C12.7288 28.5698 11.9207 27.7234 11.1611 26.2841C10.6199 25.2587 10.0965 23.9228 9.60527 22.3131C8.7498 19.51 8.20629 16.5576 8.15801 15.5882C8.00613 12.5542 8.82293 10.3844 10.5852 9.1396C13.3651 7.176 17.5771 8.33077 19.1127 8.85506C20.1444 8.23327 21.3582 7.93069 22.7298 7.95249C23.4664 7.96444 24.1679 8.02913 24.8195 8.14538C25.4992 7.93163 26.8417 7.62483 28.3785 7.64405C31.21 7.6778 33.5563 8.78124 35.1634 10.8351C36.3104 12.3004 35.7432 15.3775 35.3033 17.0814C34.6841 19.4781 33.5992 22.0272 32.2665 24.2462C32.6284 24.2488 33.1527 24.2055 33.898 24.0515C35.3685 23.748 35.7986 24.5364 35.9153 24.8894C36.3829 26.3055 34.3504 27.3756 33.7164 27.67C32.904 28.0471 31.5796 28.2768 30.4949 28.2271L30.4475 28.2241L30.1625 28.199L30.1344 28.4366L30.1072 28.6689C30.0343 31.4812 29.6326 33.2622 28.806 34.439C27.9395 35.6727 26.7353 36.0184 25.6745 36.2458C25.3126 36.3231 24.9838 36.3569 24.6857 36.3569ZM22.5318 26.1215C23.1925 26.6502 23.2504 27.6451 23.3021 29.5044C23.3087 29.7365 23.3148 29.9561 23.323 30.1612C23.3478 30.7823 23.4062 32.2365 23.634 32.8511C23.6661 32.938 23.695 33.0262 23.7254 33.1197C23.9793 33.8969 24.1065 34.2866 25.2041 34.052C26.1254 33.8544 26.5991 33.6773 26.9699 33.1494C27.5087 32.3821 27.8101 30.8385 27.8654 28.5616L28.9864 28.5887L27.8732 28.4551L27.906 28.1772C28.0126 27.2608 28.0895 26.5989 28.7019 26.1611C29.1934 25.81 29.7533 25.844 30.1993 25.9244C29.7093 25.5541 29.5738 25.1198 29.5377 24.9416L29.4442 24.4811L29.7069 24.0913C31.2203 21.846 32.4681 19.0865 33.1309 16.5201C33.812 13.8831 33.6043 12.4827 33.3967 12.2179C30.6477 8.7053 25.8807 10.1556 25.3829 10.3201L25.2988 10.3656L24.8769 10.4441L24.6608 10.3994C24.065 10.2756 23.4032 10.2072 22.6937 10.1957C21.579 10.1769 20.6797 10.4404 19.9424 10.9998L19.4307 11.3877L18.8371 11.1433C17.5686 10.6246 13.843 9.58186 11.8771 10.9743C10.7858 11.7473 10.2887 13.2618 10.3993 15.4759C10.4359 16.2069 10.9325 18.9742 11.7519 21.658C12.8842 25.367 13.9131 26.5991 14.3427 26.7423C14.4177 26.7676 14.6122 26.6165 14.8058 26.384C15.613 25.4163 16.4489 24.4729 17.3122 23.5551L17.9614 22.8719L18.7464 23.3933C19.0628 23.6036 19.4118 23.7229 19.7701 23.7454L21.6421 22.1488L21.3709 24.9163C21.3648 24.9784 21.3618 25.063 21.3861 25.2201L21.4677 25.7446L21.1138 26.1402L21.073 26.1862L22.1014 26.6608L22.5318 26.1215Z" fill="black"/>
<path d="M34.1245 25.15C30.8608 25.8233 30.6365 24.7183 30.6365 24.7183C34.0825 19.6051 35.523 13.1144 34.2799 11.526C30.8885 7.19287 25.0176 9.24201 24.9197 9.29521L24.888 9.30084C24.2433 9.16701 23.5216 9.08732 22.7104 9.0742C21.2336 9.05006 20.1136 9.46138 19.2635 10.1059C19.2635 10.1059 8.79067 5.79154 9.27771 15.5319C9.3813 17.6043 12.2477 31.2114 15.6668 27.1014C16.9165 25.5986 18.1237 24.3278 18.1237 24.3278C18.7235 24.726 19.4414 24.9294 20.194 24.8563L20.2525 24.8066C20.2343 24.9932 20.2427 25.1758 20.276 25.3919C19.3952 26.376 19.654 26.5487 17.8931 26.9111C16.1114 27.2781 17.1581 27.9318 17.8415 28.1026C18.6698 28.3098 20.5865 28.6033 21.8815 26.7906L21.8297 26.9973C22.1749 27.2739 22.4172 28.7954 22.3767 30.1747C22.3359 31.554 22.3087 32.5011 22.5808 33.2408C22.8527 33.9805 23.1236 35.6446 25.4383 35.1486C27.3724 34.7343 28.3746 33.6601 28.5143 31.8686C28.6132 30.5947 28.837 30.7832 28.8513 29.6444L29.0311 29.1053C29.2383 27.3787 29.0639 26.8218 30.2557 27.0808L30.5451 27.1061C31.4222 27.1459 32.5699 26.965 33.2437 26.6519C34.6945 25.979 35.5549 24.8549 34.1245 25.15Z" fill="#336791"/>
<path d="M24.8024 35.6657C22.8731 35.6657 22.2618 34.1378 22.0117 33.513C21.6456 32.5973 21.5666 29.0437 21.6482 26.1294C21.6494 26.0803 21.6603 26.0319 21.6804 25.987C21.7004 25.9421 21.7291 25.9016 21.7648 25.8678C21.8005 25.834 21.8426 25.8077 21.8885 25.7902C21.9345 25.7728 21.9834 25.7646 22.0326 25.7662C22.0817 25.7675 22.13 25.7785 22.1748 25.7985C22.2197 25.8186 22.2601 25.8472 22.2939 25.8829C22.3276 25.9186 22.354 25.9606 22.3715 26.0065C22.389 26.0523 22.3973 26.1012 22.3959 26.1503C22.3019 29.5115 22.4352 32.5574 22.7062 33.2352C23.129 34.292 23.7702 35.2164 25.5831 34.828C27.3041 34.4589 27.9487 33.8064 28.2358 32.1421C28.4561 30.865 28.8918 27.2317 28.9455 26.5148C28.9491 26.4658 28.9623 26.4179 28.9844 26.3741C29.0065 26.3302 29.037 26.2911 29.0743 26.2591C29.1115 26.227 29.1547 26.2026 29.2014 26.1873C29.248 26.172 29.2973 26.166 29.3463 26.1698C29.4451 26.1772 29.537 26.2236 29.6016 26.2988C29.6663 26.3739 29.6986 26.4717 29.6913 26.5705C29.6352 27.317 29.2016 30.9433 28.9729 32.2694C28.634 34.2351 27.7577 35.1266 25.7399 35.5593C25.397 35.6326 25.0856 35.6655 24.8024 35.6657ZM14.3409 28.203C14.1722 28.2024 14.0048 28.1747 13.8449 28.1209C12.5917 27.7028 11.3981 25.6619 10.297 22.0541C9.45883 19.308 8.92774 16.4415 8.8811 15.5099C8.74305 12.748 9.45415 10.794 10.9952 9.70256C14.0437 7.54256 19.172 9.59944 19.3888 9.68803C19.4807 9.72554 19.5539 9.79801 19.5923 9.88947C19.6307 9.98094 19.6312 10.0839 19.5937 10.1758C19.5562 10.2676 19.4837 10.3408 19.3922 10.3792C19.3008 10.4176 19.1978 10.4181 19.1059 10.3806C19.0565 10.3605 14.1388 8.3903 11.4259 10.3138C10.1083 11.248 9.50337 12.9838 9.62782 15.4726C9.66696 16.2576 10.1631 19.0551 11.012 21.8357C11.995 25.0565 13.1137 27.0887 14.0814 27.4115C14.2333 27.4621 14.6955 27.6161 15.3562 26.8215C16.1267 25.8962 16.9261 24.9953 17.7531 24.1201C17.8223 24.0511 17.9158 24.0119 18.0136 24.0109C18.1113 24.01 18.2055 24.0473 18.2761 24.1149C18.3467 24.1825 18.388 24.2751 18.3912 24.3728C18.3943 24.4705 18.3592 24.5656 18.2931 24.6376C18.2819 24.6494 17.1571 25.8252 15.9313 27.2999C15.3508 27.9981 14.7944 28.203 14.3409 28.203ZM30.6133 25.0518C30.5455 25.0517 30.479 25.0332 30.4209 24.9982C30.3628 24.9633 30.3153 24.9132 30.2835 24.8533C30.2517 24.7934 30.2367 24.726 30.2402 24.6583C30.2437 24.5906 30.2656 24.5251 30.3034 24.4689C33.787 19.2997 35.0097 13.0539 33.9625 11.7156C32.6444 10.0314 30.7832 9.15178 28.4303 9.10092C26.6882 9.06342 25.3035 9.50827 25.0771 9.58584L25.0202 9.60905C24.7926 9.68053 24.618 9.55584 24.5521 9.41006C24.5146 9.32654 24.5089 9.23216 24.5361 9.14473C24.5634 9.0573 24.6217 8.98286 24.7 8.93545C24.7108 8.92913 24.745 8.91459 24.8006 8.8942C25.1852 8.75334 26.5909 8.33147 28.3321 8.35139C30.9356 8.37905 33.0862 9.38287 34.551 11.2548C35.2441 12.1405 35.2457 14.181 34.5555 16.8533C33.8519 19.578 32.5279 22.506 30.9234 24.887C30.8516 24.9941 30.7335 25.0518 30.6133 25.0518ZM30.7914 27.4448C30.1966 27.4448 29.6634 27.3608 29.3441 27.1696C29.016 26.973 28.9534 26.7058 28.9452 26.564C28.8557 24.9913 29.7234 24.7176 30.1659 24.5926C30.1042 24.4994 30.0166 24.3897 29.9259 24.2765C29.6678 23.954 29.3144 23.5124 29.042 22.8519C28.9994 22.7488 28.8658 22.509 28.7111 22.2313C27.8723 20.7271 26.1269 17.597 27.2481 15.9941C27.767 15.2523 28.8004 14.9603 30.3229 15.1232C29.875 13.7587 27.7422 9.49022 22.6813 9.40725C21.1593 9.38194 19.911 9.84998 18.9731 10.7971C16.8731 12.918 16.949 16.7554 16.9502 16.7938C16.9515 16.8429 16.9431 16.8918 16.9255 16.9376C16.9079 16.9835 16.8814 17.0254 16.8476 17.061C16.8138 17.0967 16.7733 17.1253 16.7285 17.1453C16.6836 17.1652 16.6353 17.1762 16.5862 17.1775C16.5371 17.1788 16.4882 17.1704 16.4424 17.1528C16.3965 17.1352 16.3546 17.1088 16.319 17.075C16.2833 17.0412 16.2547 17.0007 16.2347 16.9558C16.2147 16.9109 16.2038 16.8626 16.2025 16.8135C16.1978 16.6431 16.1195 12.6161 18.4417 10.2707C19.5285 9.17311 20.9591 8.63123 22.6938 8.65959C25.9314 8.7128 28.0155 10.3588 29.1934 11.7301C30.4776 13.2247 31.1071 14.8733 31.1589 15.4237C31.1976 15.8329 30.9039 15.9147 30.8446 15.9269L30.7096 15.9299C29.2155 15.6906 28.2569 15.8568 27.8606 16.423C27.0077 17.642 28.6588 20.6029 29.3638 21.8673C29.5438 22.1898 29.6737 22.423 29.7332 22.5669C29.9648 23.1285 30.2669 23.5058 30.5095 23.8091C30.723 24.0758 30.9079 24.3072 30.974 24.5786C31.0047 24.6325 31.4404 25.277 34.0258 24.7433C34.6738 24.6098 35.0624 24.7239 35.1813 25.0832C35.4149 25.7898 34.1038 26.6141 33.378 26.9512C32.7276 27.2535 31.6895 27.4448 30.7914 27.4448ZM29.6908 26.5023C29.7728 26.5851 30.1832 26.7278 31.0331 26.6912C31.7887 26.6589 32.5856 26.4946 33.0637 26.2726C33.6752 25.9886 34.0834 25.671 34.2949 25.4542L34.1777 25.4758C32.5246 25.817 31.3553 25.7715 30.7023 25.3405C30.6585 25.3115 30.6162 25.2802 30.5758 25.2465C30.505 25.2744 30.4396 25.2927 30.393 25.3058C30.0227 25.4097 29.6397 25.5173 29.6908 26.5023ZM19.0122 28.5918C18.6016 28.5918 18.1694 28.5358 17.7281 28.4254C17.2708 28.311 16.4999 27.9667 16.5116 27.4012C16.525 26.7667 17.4477 26.5764 17.7951 26.5049C19.0499 26.2464 19.1317 26.1428 19.5238 25.6448C19.6382 25.4997 19.7805 25.319 19.9745 25.1024C20.2626 24.7799 20.5773 24.6165 20.9102 24.6165C21.142 24.6165 21.332 24.6951 21.4577 24.7473C21.858 24.9133 22.192 25.3145 22.3293 25.7943C22.4533 26.2272 22.394 26.6439 22.1629 26.9676C21.4042 28.03 20.3146 28.5918 19.0122 28.5918ZM17.3195 27.4333C17.4323 27.5205 17.6582 27.6369 17.9097 27.6998C18.292 27.7954 18.6627 27.8439 19.0124 27.8439C20.0779 27.8439 20.9334 27.4028 21.5547 26.5328C21.6843 26.3514 21.6454 26.121 21.6107 25.9998C21.5381 25.746 21.3576 25.5151 21.1717 25.438C21.0709 25.3963 20.9873 25.3644 20.9104 25.3644C20.8691 25.3644 20.7435 25.3644 20.5321 25.6009C20.3862 25.765 20.246 25.934 20.1116 26.1076C19.6232 26.7278 19.3994 26.9383 17.9463 27.2376C17.5916 27.3102 17.4098 27.3843 17.3195 27.4333ZM20.1951 25.7083C20.1058 25.7081 20.0195 25.6761 19.9518 25.6179C19.8841 25.5597 19.8395 25.4792 19.8259 25.3909C19.8166 25.3288 19.8104 25.2663 19.8072 25.2037C18.8547 25.1858 17.9357 24.7771 17.238 24.0491C16.3558 23.1287 15.9543 21.8535 16.1366 20.5506C16.3347 19.1357 16.2606 17.8867 16.2208 17.2157C16.2098 17.0291 16.2018 16.8944 16.2023 16.8011C16.203 16.6827 16.2053 16.3689 17.2544 15.8371C17.6275 15.648 18.3756 15.318 19.1929 15.2333C20.5469 15.0934 21.4394 15.6965 21.7066 16.9316C22.4277 20.2663 21.7638 21.7412 21.2788 22.8184C21.1886 23.019 21.1033 23.2084 21.0351 23.3919L20.9748 23.5537C20.7187 24.2406 20.4972 24.834 20.5652 25.2773C20.5726 25.3258 20.5705 25.3753 20.5588 25.423C20.5471 25.4707 20.5261 25.5157 20.497 25.5552C20.468 25.5948 20.4314 25.6283 20.3894 25.6538C20.3474 25.6792 20.3008 25.6961 20.2523 25.7036L20.1951 25.7083ZM16.9525 16.9047L16.967 17.1716C17.0083 17.8687 17.0852 19.1657 16.877 20.6544C16.7268 21.729 17.0549 22.7779 17.7777 23.5316C18.3489 24.1274 19.1006 24.4562 19.8731 24.4562H19.889C19.9755 24.0918 20.1191 23.7069 20.2738 23.2923L20.3336 23.1315C20.4107 22.9244 20.5009 22.7237 20.5966 22.5114C21.0632 21.4745 21.6442 20.1838 20.9751 17.0898C20.8427 16.4769 20.5213 16.1223 19.9933 16.0054C18.9086 15.7658 17.2921 16.5817 16.9525 16.9047ZM19.2095 16.746C19.1908 16.8782 19.4516 17.2312 19.792 17.2783C20.1316 17.3258 20.4222 17.0497 20.4407 16.9176C20.4592 16.7854 20.1986 16.6396 19.8583 16.5922C19.5182 16.5449 19.2276 16.6138 19.2095 16.746ZM19.87 17.4083L19.7746 17.4018C19.5637 17.3725 19.3504 17.2396 19.2044 17.046C19.1531 16.978 19.0694 16.8463 19.086 16.7287C19.1097 16.5562 19.3202 16.4528 19.6485 16.4528C19.7219 16.4528 19.7983 16.4582 19.8752 16.469C20.0547 16.4938 20.2213 16.5456 20.3444 16.6143C20.5577 16.7333 20.5734 16.8662 20.5638 16.9349C20.5375 17.1255 20.2345 17.4083 19.87 17.4083ZM19.3335 16.768C19.3441 16.8496 19.5461 17.1187 19.8091 17.155L19.8702 17.1592C20.1131 17.1592 20.2945 16.9682 20.3158 16.9056C20.2933 16.863 20.1372 16.757 19.8412 16.7158C19.7774 16.7066 19.7131 16.702 19.6488 16.7019C19.4584 16.7019 19.3574 16.7448 19.3335 16.768ZM29.5534 16.4762C29.572 16.6084 29.3113 16.9614 28.9713 17.0087C28.6314 17.0561 28.3406 16.7802 28.3218 16.648C28.304 16.5158 28.5646 16.3698 28.9045 16.3227C29.2443 16.2751 29.5347 16.3443 29.5534 16.4762ZM28.8927 17.0762C28.5656 17.0762 28.2831 16.8217 28.2599 16.6565C28.233 16.4582 28.5595 16.3075 28.8956 16.2608C28.9696 16.2505 29.043 16.2454 29.1135 16.2454C29.4037 16.2454 29.5959 16.3305 29.6151 16.4678C29.6275 16.5566 29.5593 16.6937 29.4419 16.8175C29.3643 16.8988 29.2014 17.0397 28.9795 17.0704L28.8927 17.0762ZM29.1138 16.3701C29.0491 16.3701 28.9816 16.375 28.9131 16.3844C28.5754 16.4315 28.3738 16.5669 28.3837 16.6396C28.3949 16.7195 28.6106 16.9518 28.893 16.9518L28.9626 16.9469C29.147 16.9213 29.2856 16.8008 29.3516 16.7315C29.4555 16.6225 29.4967 16.5198 29.4918 16.4849C29.4852 16.4385 29.3606 16.3701 29.1138 16.3701ZM30.0431 24.0676C29.9753 24.0677 29.9088 24.0493 29.8507 24.0144C29.7926 23.9796 29.7451 23.9296 29.7132 23.8698C29.6813 23.81 29.6663 23.7427 29.6697 23.675C29.6732 23.6074 29.695 23.5419 29.7327 23.4857C30.5291 22.2962 30.3834 21.0833 30.2425 19.9103C30.1823 19.4106 30.1204 18.8938 30.1363 18.3979C30.1527 17.8876 30.2177 17.4667 30.2802 17.0596C30.3545 16.5773 30.4248 16.1216 30.3958 15.5807C30.3931 15.5317 30.4002 15.4826 30.4165 15.4363C30.4328 15.39 30.4581 15.3473 30.4909 15.3108C30.5237 15.2742 30.5634 15.2445 30.6076 15.2233C30.6519 15.2021 30.7 15.1898 30.749 15.1872C30.798 15.1845 30.8471 15.1916 30.8934 15.2079C30.9397 15.2242 30.9824 15.2495 31.0189 15.2823C31.0554 15.3151 31.0852 15.3547 31.1064 15.399C31.1276 15.4433 31.1399 15.4913 31.1425 15.5404C31.1758 16.1587 31.0963 16.6743 31.0195 17.1733C30.9602 17.5583 30.8988 17.9565 30.884 18.4218C30.8697 18.861 30.9257 19.3274 30.985 19.821C31.135 21.0683 31.3049 22.4821 30.3543 23.9017C30.3201 23.9528 30.2738 23.9947 30.2195 24.0237C30.1652 24.0526 30.1046 24.0677 30.0431 24.0676Z" fill="white"/>
</svg>
