<svg width="44" height="44" viewBox="0 0 44 44" fill="none" xmlns="http://www.w3.org/2000/svg">
<g clip-path="url(#clip0_176_5)">
<rect width="44" height="44" rx="22" fill="#251C31"/>
<path d="M21.9102 9.5C15.5633 9.5 15.9594 12.2523 15.9594 12.2523L15.9672 15.1039H22.0234V15.9594H13.5602C13.5602 15.9594 9.5 15.4984 9.5 21.9031C9.5 28.3063 13.0445 28.0797 13.0445 28.0797H15.1602V25.1078C15.1602 25.1078 15.0461 21.5633 18.6484 21.5633H24.6547C24.6547 21.5633 28.0297 21.618 28.0297 18.3016V12.818C28.0297 12.818 28.5422 9.5 21.9102 9.5ZM18.5703 11.4172C19.1727 11.4172 19.6602 11.9047 19.6602 12.507C19.6602 13.1094 19.1727 13.5969 18.5703 13.5969C18.4271 13.5971 18.2853 13.569 18.153 13.5143C18.0207 13.4596 17.9005 13.3794 17.7992 13.2781C17.698 13.1769 17.6177 13.0567 17.563 12.9243C17.5083 12.792 17.4803 12.6502 17.4805 12.507C17.4805 11.9047 17.968 11.4172 18.5703 11.4172Z" fill="url(#paint0_linear_176_5)"/>
<path d="M21.0098 34.3695C27.3567 34.3695 26.9606 31.6172 26.9606 31.6172L26.9528 28.7656H20.8965V27.9101H29.359C29.359 27.9101 33.42 28.3711 33.42 21.9672C33.42 15.5633 29.8754 15.7906 29.8754 15.7906H27.7598V18.7617C27.7598 18.7617 27.8739 22.3062 24.2715 22.3062H18.2653C18.2653 22.3062 14.8903 22.2515 14.8903 25.568V31.0515C14.8903 31.0515 14.3778 34.3695 21.0098 34.3695ZM24.3497 32.4523C24.2065 32.4525 24.0647 32.4245 23.9324 32.3698C23.8 32.3151 23.6798 32.2348 23.5786 32.1336C23.4773 32.0323 23.3971 31.9121 23.3424 31.7798C23.2877 31.6475 23.2596 31.5057 23.2598 31.3625C23.2598 30.7609 23.7473 30.2734 24.3497 30.2734C24.952 30.2734 25.4395 30.7601 25.4395 31.3625C25.4395 31.9656 24.952 32.4523 24.3497 32.4523Z" fill="url(#paint1_linear_176_5)"/>
</g>
<defs>
<linearGradient id="paint0_linear_176_5" x1="11.9023" y1="11.6734" x2="24.2641" y2="24.0766" gradientUnits="userSpaceOnUse">
<stop stop-color="#387EB8"/>
<stop offset="1" stop-color="#366994"/>
</linearGradient>
<linearGradient id="paint1_linear_176_5" x1="18.427" y1="19.564" x2="31.7036" y2="32.2836" gradientUnits="userSpaceOnUse">
<stop stop-color="#FFE052"/>
<stop offset="1" stop-color="#FFC331"/>
</linearGradient>
<clipPath id="clip0_176_5">
<rect width="44" height="44" rx="22" fill="white"/>
</clipPath>
</defs>
</svg>
