<svg width="44" height="44" viewBox="0 0 44 44" fill="none" xmlns="http://www.w3.org/2000/svg">
<rect width="44" height="44" rx="22" fill="#251C31"/>
<g clip-path="url(#clip0_124_88)">
<path d="M11 22V11H33V33H11" fill="#007ACC"/>
<path d="M15.8235 22.0385V22.935H18.6835V31.075H20.713V22.935H23.573V22.055C23.573 21.56 23.573 21.1585 23.551 21.1475C23.551 21.131 21.8075 21.1255 19.69 21.1255L15.84 21.142V22.044L15.8235 22.0385ZM28.677 21.12C29.238 21.252 29.667 21.505 30.052 21.9065C30.2555 22.1265 30.558 22.5115 30.58 22.6105C30.58 22.6435 29.6285 23.287 29.051 23.6445C29.029 23.661 28.941 23.5675 28.853 23.4245C28.567 23.0175 28.2755 22.8415 27.819 22.8085C27.159 22.7645 26.719 23.111 26.719 23.6885C26.719 23.8645 26.752 23.9635 26.818 24.1065C26.9665 24.409 27.2415 24.5905 28.094 24.9645C29.667 25.641 30.349 26.0865 30.7615 26.7245C31.229 27.4395 31.3335 28.5615 31.02 29.403C30.668 30.3215 29.81 30.943 28.5835 31.1465C28.1985 31.2125 27.3185 31.2015 26.906 31.13C26.026 30.965 25.1845 30.525 24.6675 29.9585C24.464 29.7385 24.0735 29.15 24.0955 29.1115L24.3045 28.9795L25.1295 28.501L25.751 28.138L25.894 28.3305C26.0755 28.6165 26.4825 29.0015 26.719 29.1335C27.434 29.502 28.391 29.4525 28.864 29.0235C29.0675 28.8365 29.1555 28.6385 29.1555 28.3635C29.1555 28.1105 29.117 27.995 28.9905 27.8025C28.8145 27.5605 28.4625 27.3625 27.4725 26.9225C26.334 26.4385 25.85 26.1305 25.399 25.6575C25.1405 25.3715 24.904 24.926 24.794 24.5575C24.7115 24.2385 24.684 23.4575 24.761 23.144C24.9975 22.044 25.828 21.274 27.016 21.054C27.401 20.977 28.3085 21.01 28.688 21.109L28.677 21.12Z" fill="white"/>
</g>
<defs>
<clipPath id="clip0_124_88">
<rect width="22" height="22" fill="white" transform="translate(11 11)"/>
</clipPath>
</defs>
</svg>
