<svg xmlns="http://www.w3.org/2000/svg" fill="none" viewBox="0 0 44 44" height="44" width="44">
<rect fill-opacity="0.9" fill="black" rx="22" height="44" width="44"></rect>
<path fill="url(#paint0_linear_186_71)" d="M21.9998 13.6023C18.7395 13.6023 16.5473 15.025 15.4221 17.8711C15.3054 18.1657 15.6653 18.4078 15.8981 18.1925C17.0852 17.0947 18.4193 16.7313 19.8998 17.1011C20.9649 17.3671 21.7262 18.14 22.5691 18.9952C23.9411 20.3876 25.5295 22 28.9998 22C32.26 22 34.4528 20.5766 35.5774 17.7305C35.6941 17.436 35.3342 17.1939 35.1014 17.4091C33.9143 18.507 32.5803 18.871 31.0998 18.5011C30.0352 18.2351 29.2739 17.4622 28.431 16.607C27.0584 15.214 25.4694 13.6023 21.9998 13.6023ZM14.9998 22C11.7395 22 9.54676 23.4233 8.42209 26.2694C8.30543 26.564 8.66534 26.806 8.89809 26.5908C10.0852 25.493 11.4193 25.129 12.8998 25.4994C13.9643 25.766 14.7256 26.5383 15.5685 27.3929C16.9411 28.7859 18.5301 30.3982 21.9998 30.3982C25.26 30.3982 27.4528 28.9749 28.5774 26.1288C28.6941 25.8342 28.3342 25.5921 28.1014 25.8074C26.9143 26.9052 25.5803 27.2692 24.0998 26.8988C23.0346 26.6328 22.2733 25.8599 21.4304 25.0053C20.0584 23.6123 18.47 22 14.9998 22Z"></path>
<defs>
<linearGradient gradientUnits="userSpaceOnUse" y2="29.322" x2="22.9932" y1="12.8049" x1="20.752" id="paint0_linear_186_71">
<stop stop-color="#00C1E0"></stop>
<stop stop-color="#009BB8" offset="1"></stop>
</linearGradient>
</defs>
</svg>
